<svg width="22" height="24" viewBox="0 0 22 24" fill="none" xmlns="http://www.w3.org/2000/svg">
<path d="M10.9032 2.2467C8.75849 2.2468 6.68377 3.09182 5.05029 4.63055C3.41681 6.16929 2.33116 8.30133 1.9876 10.6452C1.64404 12.989 2.06499 15.3918 3.17513 17.4235C4.28527 19.4551 6.01215 20.9832 8.04679 21.7342C8.4984 21.8217 8.66776 21.5217 8.66776 21.2592C8.66776 21.0217 8.65646 20.2342 8.65646 19.3967C6.38709 19.8592 5.8 18.7842 5.61935 18.2217C5.41891 17.6747 5.10115 17.1899 4.69355 16.8092C4.37742 16.6217 3.9258 16.1592 4.68225 16.1467C4.97109 16.1814 5.24812 16.2927 5.48986 16.4711C5.7316 16.6495 5.93093 16.8899 6.07097 17.1717C6.1945 17.4174 6.36061 17.6337 6.55978 17.8082C6.75895 17.9827 6.98727 18.112 7.23164 18.1886C7.47601 18.2652 7.73165 18.2877 7.98389 18.2548C8.23613 18.2219 8.48002 18.1342 8.70159 17.9967C8.74069 17.4883 8.94534 17.013 9.27742 16.6592C7.26774 16.4092 5.16774 15.5467 5.16774 11.7217C5.15505 10.7279 5.48629 9.76631 6.09355 9.03423C5.81741 8.17045 5.84972 7.22252 6.18387 6.38423C6.18387 6.38423 6.94029 6.12172 8.66774 7.40923C10.1457 6.95921 11.7059 6.95921 13.1839 7.40923C14.9113 6.10923 15.6677 6.38423 15.6677 6.38423C16.0019 7.22251 16.0342 8.17046 15.7581 9.03423C16.3671 9.76506 16.6987 10.7275 16.6839 11.7217C16.6839 15.5592 14.5726 16.4092 12.5629 16.6592C12.7785 16.9011 12.9445 17.1915 13.0497 17.5107C13.1549 17.83 13.1968 18.1705 13.1726 18.5092C13.1726 19.8468 13.1613 20.9217 13.1613 21.2592C13.1613 21.5217 13.3306 21.8342 13.7822 21.7342C15.8133 20.9771 17.5352 19.4455 18.6406 17.4128C19.746 15.38 20.163 12.9785 19.8171 10.6369C19.4711 8.29535 18.3848 6.16608 16.752 4.62922C15.1193 3.09235 13.0463 2.24794 10.9032 2.2467Z" fill="white"/>
</svg>
