<svg width="16" height="17" viewBox="0 0 16 17" fill="none" xmlns="http://www.w3.org/2000/svg">
<g clip-path="url(#clip0_1_260)">
<path d="M15.4112 8.65904C15.4112 7.96256 15.3589 7.45431 15.2459 6.92725H7.8948V10.0708H12.2097C12.1228 10.852 11.653 12.0285 10.609 12.8191L10.5944 12.9244L12.9187 14.8724L13.0797 14.8898C14.5586 13.4121 15.4112 11.2379 15.4112 8.65904Z" fill="#4285F4"/>
<path d="M7.8948 16.9416C10.0087 16.9416 11.7834 16.1886 13.0797 14.8898L10.609 12.8191C9.94788 13.3179 9.06051 13.6662 7.8948 13.6662C5.82433 13.6662 4.06704 12.1885 3.44061 10.1461L3.3488 10.1546L0.931977 12.1781L0.900371 12.2732C2.18789 15.0403 4.83254 16.9416 7.8948 16.9416Z" fill="#34A853"/>
<path d="M3.44085 10.1461C3.27557 9.61904 3.17991 9.05428 3.17991 8.47076C3.17991 7.88718 3.27557 7.32248 3.43216 6.79542L3.42778 6.68317L0.980675 4.62708L0.90061 4.66828C0.369963 5.81656 0.0654764 7.10603 0.0654764 8.47076C0.0654764 9.8355 0.369963 11.1249 0.90061 12.2732L3.44085 10.1461Z" fill="#FBBC05"/>
<path d="M7.8948 3.27535C9.36499 3.27535 10.3567 3.96243 10.9222 4.5366L13.1319 2.20241C11.7748 0.837672 10.0087 0 7.8948 0C4.83254 0 2.18789 1.90121 0.900371 4.66832L3.43192 6.79546C4.06704 4.75306 5.82433 3.27535 7.8948 3.27535Z" fill="#EB4335"/>
</g>
<defs>
<clipPath id="clip0_1_260">
<rect width="15.3548" height="17" fill="white" transform="translate(0.0644455)"/>
</clipPath>
</defs>
</svg>
