<svg width="25" height="24" viewBox="0 0 25 24" fill="none" xmlns="http://www.w3.org/2000/svg">
<path d="M3.40918 8.86373V6.89403C3.40918 6.35011 3.85011 5.90918 4.39403 5.90918H20.1516C20.6955 5.90918 21.1365 6.35011 21.1365 6.89403V8.86373M3.40918 14.7728V16.7425C3.40918 17.2864 3.85011 17.7274 4.39403 17.7274H20.1516C20.6955 17.7274 21.1365 17.2864 21.1365 16.7425V14.7728" stroke="white" stroke-width="2.68636" stroke-linecap="round" stroke-linejoin="round"/>
<path d="M21.1363 14.7726C19.5046 14.7726 18.1818 13.4498 18.1818 11.8181C18.1818 10.1863 19.5046 8.86353 21.1363 8.86353" stroke="white" stroke-width="2.68636" stroke-linecap="round" stroke-linejoin="round"/>
<path d="M3.40918 8.86353C5.04093 8.86353 6.36373 10.1863 6.36373 11.8181C6.36373 13.4498 5.04093 14.7726 3.40918 14.7726" stroke="white" stroke-width="2.68636" stroke-linecap="round" stroke-linejoin="round"/>
<path d="M14.2426 5.90918V17.7274" stroke="white" stroke-width="2.68636" stroke-linecap="round" stroke-linejoin="round"/>
</svg>
