<svg width="64" height="64" viewBox="0 0 64 64" fill="none" xmlns="http://www.w3.org/2000/svg">
<g clip-path="url(#clip0_9_864)">
<path fill-rule="evenodd" clip-rule="evenodd" d="M0 0H64V64H0V0Z" fill="white"/>
<path fill-rule="evenodd" clip-rule="evenodd" d="M61.1764 31.9429C61.209 48.0568 48.1723 61.1453 32.0584 61.1765C15.9442 61.2084 2.85509 48.1714 2.82354 32.0575C2.792 15.9439 15.8283 2.85545 31.9432 2.82391C48.0568 2.79171 61.1452 15.829 61.1764 31.9429Z" fill="black"/>
<path fill-rule="evenodd" clip-rule="evenodd" d="M3.37579 32.0568C3.40766 47.8393 16.274 60.6558 32.0578 60.6249C47.841 60.5941 60.6559 47.7271 60.6254 31.9442C60.5935 16.1604 47.7275 3.34482 31.944 3.37603C16.1604 3.40724 3.34557 16.2732 3.37579 32.0568Z" fill="white"/>
<path fill-rule="evenodd" clip-rule="evenodd" d="M4.30669 32.0551C4.33624 47.3256 16.7846 59.7241 32.0551 59.6936C47.3246 59.663 59.7242 47.2164 59.6939 31.9462C59.6647 16.6756 47.2164 4.27612 31.9455 4.30633C16.6753 4.33688 4.27681 16.7845 4.30669 32.0551Z" fill="black"/>
<path fill-rule="evenodd" clip-rule="evenodd" d="M15.219 32.0335C15.2373 41.2864 22.7799 48.7991 32.0342 48.7815C41.2874 48.7626 48.8008 41.2203 48.7825 31.9671C48.7643 22.7135 41.2213 15.2008 31.9674 15.219C22.7145 15.2376 15.2008 22.7799 15.219 32.0335Z" fill="white"/>
<path fill-rule="evenodd" clip-rule="evenodd" d="M15.8389 32.0322C15.8578 40.9432 23.1206 48.179 32.0325 48.1607C40.9437 48.1431 48.1796 40.8787 48.1613 31.9685C48.145 23.0576 40.8793 15.8217 31.9687 15.84C23.0568 15.8573 15.8223 23.121 15.8389 32.0322Z" fill="black"/>
<path fill-rule="evenodd" clip-rule="evenodd" d="M16.2116 32.0312C16.2289 40.7383 23.3249 47.8064 32.0313 47.7892C40.7377 47.7716 47.8069 40.6752 47.7906 31.9698C47.773 23.2631 40.6759 16.1946 31.9696 16.2118C23.2628 16.2291 16.1943 23.3258 16.2116 32.0312ZM18.3137 12.6648L21.1316 10.5189L20.1581 13.9497L23.0942 15.9791L19.569 16.0369L18.5753 19.4205L17.4092 16.0428L13.8237 16.084L16.6313 13.9461L15.4788 10.666L18.3137 12.6648ZM45.3113 48.1155L48.1289 45.9703L47.1554 49.4008L50.0919 51.4302L46.5667 51.4876L45.5727 54.8716L44.4066 51.4942L40.8217 51.5351L43.629 49.3968L42.4768 46.1171L45.3113 48.1155ZM14.6199 44.283L17.4371 42.1378L16.4639 45.5679L19.4 47.5973L15.8753 47.655L14.8808 51.039L13.7154 47.6613L10.1299 47.7018L12.9368 45.5643L11.7844 42.2845L14.6199 44.283ZM49.8734 17.4354L52.691 15.2895L51.7171 18.72L54.6539 20.7496L51.1281 20.8074L50.1347 24.1914L48.9686 20.8134L45.3841 20.8546L48.1913 18.7166L47.0382 15.4366L49.8734 17.4354Z" fill="white"/>
<path fill-rule="evenodd" clip-rule="evenodd" d="M23.6562 25.6765L16.3423 31.2466L28.1913 46.8053L35.3647 41.3425L35.9743 36.8416L27.9094 26.2519L23.6562 25.6765ZM29.7077 38.1882L29.0841 38.6627L24.4298 32.5514L25.053 32.0766L29.7077 38.1882Z" fill="black"/>
<path fill-rule="evenodd" clip-rule="evenodd" d="M16.864 31.3173C20.6636 36.3062 24.4629 41.2952 28.2621 46.2844C28.7964 45.877 34.7898 41.313 35.0172 41.14C35.0534 40.8654 35.5471 37.2201 35.5846 36.9452L27.7063 26.6005C27.4331 26.564 24.0325 26.1035 23.7592 26.0667L16.864 31.3173ZM28.7881 38.8885L23.9083 32.4811L25.1242 31.5547L30.2291 38.2586L29.0128 39.1847L28.7881 38.8885Z" fill="white"/>
<path fill-rule="evenodd" clip-rule="evenodd" d="M17.3855 31.388L28.3324 45.7618L34.6684 40.9368L35.195 37.0477L27.5043 26.9485L23.8623 26.4558L17.3855 31.388ZM28.7175 39.4101L23.3865 32.41L25.1944 31.0331L30.7509 38.3294L28.943 39.7059L28.7175 39.4101ZM38.249 28.1856L39.8749 30.3212L39.2524 30.796L34.6688 24.7781L35.292 24.3036L36.9189 26.4392L41.5958 22.8772L38.2992 18.5489L34.0469 17.9735L28.9124 21.8831L28.3928 25.7247L36.6828 36.6105L41.0739 37.2045L45.7541 33.6395L46.3637 29.1382L42.9253 24.624L38.249 28.1856Z" fill="black"/>
<path fill-rule="evenodd" clip-rule="evenodd" d="M29.2611 22.0857L28.783 25.6217L36.8861 36.2618L40.971 36.8147C41.1981 36.642 45.1804 33.6096 45.4058 33.4373C45.4434 33.1617 45.9377 29.5164 45.9739 29.2415C45.8092 29.0253 43.238 25.6473 42.8552 25.1453C42.3701 25.5148 39.2554 27.8871 38.7696 28.2564C39.105 28.696 40.3966 30.3926 40.3966 30.3926L39.182 31.318L34.1478 24.7077L35.3624 23.7823C35.3624 23.7823 36.655 25.4786 36.9886 25.9179C37.4737 25.5487 40.5891 23.1764 41.0736 22.8065L38.0963 18.8972C37.8227 18.8604 34.4228 18.4002 34.1488 18.3636C33.9204 18.5366 29.4888 21.9117 29.2611 22.0857Z" fill="white"/>
<path fill-rule="evenodd" clip-rule="evenodd" d="M29.6095 22.2885L29.1729 25.5188L37.0893 35.9139C37.35 35.9487 40.6075 36.3897 40.8681 36.4252C41.0939 36.2532 44.8322 33.4057 45.0586 33.2341C45.0968 32.9532 45.5763 29.4091 45.5859 29.3441L42.7856 25.6672L39.2917 28.3274L40.9186 30.4633L39.1114 31.8396L33.626 24.6363L35.4325 23.26C35.4325 23.26 36.7251 24.9563 37.0595 25.3963C37.5289 25.0384 40.0822 23.0937 40.5524 22.7361C40.1802 22.247 38.0555 19.4573 37.8935 19.2452L34.2515 18.7524C34.0251 18.9261 29.8366 22.1155 29.6095 22.2885Z" fill="black"/>
</g>
<defs>
<clipPath id="clip0_9_864">
<rect width="64" height="64" fill="white"/>
</clipPath>
</defs>
</svg>
