<svg width="120" height="64" viewBox="0 0 120 64" fill="none" xmlns="http://www.w3.org/2000/svg">
<g clip-path="url(#clip0_9_856)">
<path d="M0 0H120V64H0V0Z" fill="#F0141E"/>
<path d="M101.549 14.9181V5.11718H80.9794L77.593 37.8474L74.2474 5.11718H66.8295L67.6584 13.857C66.8033 11.617 63.7678 5.11718 57.0838 5.11718C57.0394 5.11334 49.657 5.11718 49.657 5.11718L49.6263 52.8241L44.2208 5.11718L34.5046 5.11334L28.9116 54.5428L28.9148 5.11718H19.6143L16.2627 32.8829L12.9977 5.11718H3.6958V58.8554H11.0213V32.9533L14.354 58.8554H18.2477L21.5333 32.9533V58.8554H35.6544L36.5084 50.5898H42.1935L43.0474 58.8554L56.9124 58.8673H56.9225V58.8554H56.9398V41.4141L58.6376 41.0865L62.1562 58.8673H69.3281L69.3252 58.8554H69.3456L64.7285 38.0202C67.0664 35.7229 69.709 29.8989 69.0058 24.3249V24.3229C69.0144 24.3953 73.3652 58.8913 73.3652 58.8913L81.8933 58.8561L87.7203 10.1511V58.8561H101.548V49.1924H94.9858V36.8701H101.548V27.0589H94.9858V14.9181H101.549ZM37.3712 42.0705L39.384 19.0938L41.4696 42.0705H37.3712ZM58.6611 31.4609C58.0985 31.8202 57.5129 32.0001 56.9398 32.002V14.7188C56.9487 14.7188 56.9621 14.7169 56.9765 14.7169C57.5477 14.7111 61.8252 14.9453 61.8252 23.2637C61.8252 27.6151 60.3708 30.3594 58.6611 31.4609ZM116.306 49.1834V58.8436H102.814V5.1095H110.08V49.1834H116.306Z" fill="white"/>
</g>
<defs>
<clipPath id="clip0_9_856">
<rect width="120" height="64" fill="white"/>
</clipPath>
</defs>
</svg>
