<svg width="64" height="64" viewBox="0 0 64 64" fill="none" xmlns="http://www.w3.org/2000/svg">
<path fill-rule="evenodd" clip-rule="evenodd" d="M0 0H64V64H0V0Z" fill="white"/>
<path fill-rule="evenodd" clip-rule="evenodd" d="M58.7485 52.6908V51.9385H2.72705V52.6908H58.7485ZM60.7848 44.0562C62.0312 44.0562 63.0592 45.0835 63.0592 46.3305C63.0592 47.5046 62.0312 48.5315 60.7848 48.5315C59.6104 48.5315 58.5831 47.5046 58.5831 46.3305C58.5831 45.0835 59.6104 44.0562 60.7848 44.0562ZM60.7848 44.4964C59.8309 44.4964 59.0234 45.3036 59.0234 46.3305C59.0234 47.2841 59.8309 48.0913 60.7848 48.0913C61.8114 48.0913 62.6186 47.2841 62.6186 46.3305C62.6189 45.3033 61.8114 44.4964 60.7848 44.4964ZM61.3711 47.5046L60.8575 46.477H60.3445V47.5046H59.9042V45.0835H61.078C61.2978 45.0835 61.5182 45.0835 61.738 45.2299C61.9578 45.3763 61.9578 45.5968 61.9578 45.8172C61.9578 46.2572 61.738 46.477 61.3708 46.477L61.8845 47.5046H61.3711ZM61.5182 45.7435C61.5182 45.4497 61.1517 45.4497 60.9312 45.4497H60.3442V46.1101H61.0776C61.3711 46.1104 61.5182 46.1104 61.5182 45.7435ZM15.4682 43.0518L16.0549 42.2446L16.1283 41.9518L16.5682 41.4378L17.2286 40.631L17.7419 40.1173L18.2556 39.6034L18.5491 39.3102L18.8426 39.017L19.1358 38.7232L19.2829 38.6498L19.4293 38.7232L19.3562 38.9436L18.9163 39.5303L18.476 40.3371L18.0358 40.8511L17.2286 42.0248L16.788 42.4648L16.3478 42.7586L16.0549 43.0518L15.6143 43.5651L14.8809 44.3729L14.5873 44.7395L14.1471 45.3262L13.6334 45.9132L15.4682 43.0518ZM19.3562 46.7937L19.5027 46.3535L19.7228 46.0599L19.9433 45.546L20.1631 45.1794L20.3102 44.8129L20.3829 44.3729V44.0057L20.53 43.6388L20.7504 43.1985L20.9702 42.6119L21.0433 42.2446L21.2637 41.9518L21.4102 41.5842L21.4835 41.3644L21.3368 41.2177L21.2637 41.0709L21.4835 40.631L21.7037 40.2641L21.9972 39.8235L22.2176 39.3836L22.4381 39.1634L22.805 38.503L23.1712 37.8426L23.6115 37.5495L23.978 37.1095L24.3456 36.7423L24.7855 36.1559L24.8586 36.0085L25.2255 35.642L25.1521 35.9351L25.0787 36.4488L24.7855 37.0361L24.7125 37.4027L24.6388 37.6959L24.492 38.0628V38.3563L24.4183 38.503V38.6498L24.492 38.7969V39.5303L24.3456 39.9703L24.0514 40.4105L23.7582 40.9245L23.4647 41.3644L23.2449 41.804L22.9511 42.2446L22.5845 42.5381L22.4381 42.6119L22.1439 42.9784L21.777 43.4921L21.4835 43.9323L21.1903 44.1525L21.0433 44.446L20.8972 44.6661L20.8235 44.9593L20.6767 45.3262L20.4572 45.6197L20.1631 45.8398L19.9433 46.133L19.7228 46.4268L19.6491 46.5736L19.5027 46.7937L19.3562 47.0135V46.7937ZM33.0022 33.0737L33.0756 33.3673V33.514L33.1489 33.8075L32.9291 34.2475L32.7824 34.5413L32.9291 35.1287L33.2954 36.229L33.5158 37.1822L33.7356 38.0628L34.0301 38.7969L34.6172 39.4569L34.9834 39.7501L35.4236 39.9703L35.6438 40.1907L35.9373 40.704L36.3038 41.3644L36.5977 41.8781L36.8912 42.6119L37.2571 43.1252L37.6246 43.7852L37.7714 44.3729L38.0652 44.8859L38.285 45.3992L38.5779 46.0599L38.7246 46.4268L38.9451 47.0135L39.1649 47.4541L39.3854 47.8203L39.4588 48.1139L39.6052 48.3343L39.7526 48.6282L39.899 48.7743L40.0454 48.9944L40.1188 48.8476L40.1922 48.5541L40.1188 48.3343L40.1922 48.1139L40.1188 47.8941L40.0454 47.7473L39.9717 47.6005L39.899 47.307L39.7526 47.0866L39.6052 46.7937L39.5318 46.4268V46.2064L39.4588 46.0599V45.8398L39.5318 45.6197L39.6786 45.546V45.3262L39.6052 45.0327L39.4588 44.6661L39.312 44.3729L39.0185 44.0791L38.7987 43.7852L38.5779 43.3456L38.4315 42.9054L38.285 42.5381L38.1383 42.318L37.9185 41.7317L37.7714 41.1443L37.5516 40.7774L37.4776 40.5569L37.4042 40.3371L37.5516 40.1173L37.698 39.9703V39.6767L37.5516 39.3102L37.4776 39.017L37.2571 38.7232L37.1107 38.503L37.0373 38.2099L36.8912 37.9897L36.6707 37.6225L36.5236 37.329L36.3776 36.9621L36.0834 36.5222L35.9373 36.1559L35.497 35.642L35.2032 35.2747L35.1301 35.1287L34.8363 34.7614L34.6172 34.3212L34.3967 34.0273L34.1762 33.5877L34.0301 33.3673L33.7356 32.8539L33.3687 32.3406L33.1489 31.9731L32.9291 31.6069L32.6353 31.2396L32.2691 30.7263L33.0022 33.0737ZM37.1107 34.2475L37.4042 34.5413L37.7714 34.9812L38.1383 35.3485L38.5779 35.7884L39.0185 36.229L39.4588 36.7423L39.7526 37.1095L40.1922 37.5495L40.3393 37.8426L40.486 37.9897L40.5591 38.2099L40.6325 38.7232L40.7058 39.017L40.9263 39.2368L41.2925 39.6034L41.8062 40.1907L42.2464 40.5569L42.6867 40.9245L43.4942 41.6576L43.714 41.9518L43.8601 42.2446L44.0072 42.5381L44.2276 42.832L44.4474 43.1252L44.7413 43.5651L44.8877 43.9323L45.1082 44.2989L45.4014 44.6661L45.5481 45.106L45.7679 45.3262L45.915 45.6931L46.0621 45.9132L46.2088 46.2797L46.4286 46.647L46.7218 47.0866L46.9423 47.6005L46.502 47.0135L46.0621 46.4268L45.2549 45.4726L44.6679 44.8859L44.2276 44.446L43.8601 43.9323L43.4208 43.5651L43.0533 43.1252L42.7601 42.9054L42.3932 42.832L42.1741 42.7586L41.9529 42.5381L41.8062 42.2446L41.5864 42.0248L41.2195 41.5842L40.8529 41.2177L40.5591 40.9245L40.3393 40.704L40.1188 40.3371L39.899 39.8972L39.6786 39.5303L39.4588 39.017L39.1649 38.503L38.7246 37.6225L38.4315 37.1095L38.1383 36.4488L37.9185 36.0085L37.6246 35.4952L37.4776 35.1287L37.2571 34.7614L37.1107 34.6881V34.5413L36.9639 34.3212L36.8181 33.8809L37.1107 34.2475ZM43.5676 38.503L43.8601 38.8703L44.1543 39.3102L44.3017 39.5303L44.3741 39.8235V40.2641L44.5208 40.4839L44.7413 40.704L44.9611 41.0709L45.3283 41.3644L45.6218 41.804L45.915 42.0248L46.1348 42.318L46.7952 43.0518L47.0887 43.4187L47.3826 43.7122L47.6024 43.9323L47.8962 44.2255L47.4559 43.4921L46.9423 42.832L46.6484 42.318L46.502 42.0982L46.3553 41.8781V41.3644L46.2822 41.1443L46.1348 40.9245L45.6945 40.4105L45.2549 39.8972L44.8147 39.4569L44.3741 39.0901L44.0072 38.7232L43.714 38.3563L43.3471 38.1365L43.5676 38.503Z" fill="black"/>
<path fill-rule="evenodd" clip-rule="evenodd" d="M6.14991 35.4222C6.14787 39.6935 7.26052 43.8913 9.37786 47.6009L11.6522 45.1798L13.8536 42.3184L16.4215 39.5307L21.6303 33.5144L22.2173 32.7809L22.9504 32.6345L23.3907 32.3413L25.9592 29.9198L26.9859 29.0396L30.1411 26.5448L30.7271 26.2513L31.4609 26.3984L32.3418 27.2786L33.8827 28.7461L35.0564 29.0396L36.8909 30.5806L39.2383 32.7812L40.7052 33.3683L42.6864 34.7624L44.301 36.6699L46.5747 39.8245L48.3355 41.7323L49.729 43.7132L50.7569 44.7405L51.7108 45.9879L52.3709 47.0145C54.4255 43.6398 55.0115 39.3112 55.0115 35.4232C55.0115 21.923 44.0806 10.9917 30.581 10.9917C17.0819 10.9904 6.14991 21.922 6.14991 35.4222Z" fill="black"/>
<path fill-rule="evenodd" clip-rule="evenodd" d="M14.5872 12.2375L14.2203 13.7784L15.6141 14.6589L14.0002 14.8057L13.6333 16.3463L12.9732 14.8787L11.3586 14.9521L12.6063 13.9255L11.9459 12.4576L13.3401 13.2648L14.5872 12.2375ZM35.3504 7.68871L33.8829 8.49587L34.2491 10.1102L33.0754 9.00951L31.6815 9.89004V9.81667L32.3419 8.34911L31.0949 7.24878L32.7085 7.39553L33.3686 5.92798L33.7355 7.54229L35.3504 7.68871ZM24.4919 7.90885L23.5379 9.22931L24.4919 10.5504V10.6235L22.9509 10.0368L21.997 11.3573V9.74329L20.4571 9.15627L21.997 8.716V7.10202H22.0704L22.9509 8.42249L24.4919 7.90885ZM29.7741 7.24878L28.6007 8.34911L29.2604 9.81667H29.1874L27.8666 9.00951L26.6195 10.1102L26.986 8.49587L25.5922 7.68871V7.61533L27.2065 7.46891L27.4997 5.92798L28.1597 7.39553L29.7741 7.24878ZM19.2827 9.67024L18.5489 11.1371L19.7226 12.2375L18.182 12.0177L17.4489 13.4846L17.1547 11.8706L15.5408 11.6504L17.0087 10.9173L16.7151 9.30335L17.8151 10.4034L19.2827 9.67024ZM4.7559 24.4168L5.19649 26.0305H6.81047L5.48934 26.911L6.00299 28.4516L4.68252 27.4977L3.36172 28.3786L3.87603 26.911L2.62861 25.9574V25.8841L4.16921 25.9574L4.7559 24.4168ZM7.17736 19.721L7.39716 21.3353L9.01114 21.6292L7.54392 22.2889L7.76438 23.9029L6.66339 22.7292L5.12279 23.3896L5.92961 21.9957L4.82961 20.8213L6.36987 21.1155L7.17736 19.721ZM10.5517 15.5391L10.4787 17.1534L11.9459 17.7401V17.8138L10.405 18.1807L10.3319 19.721V19.7947L9.45174 18.4005L7.8371 18.7671L8.86439 17.5203L8.05756 16.1992V16.1258L9.52512 16.7866L10.5517 15.5391ZM3.06854 29.3322H3.14159L3.87603 30.7994L5.48934 30.5059L4.31563 31.6802L5.12279 33.0738H5.04941L3.65556 32.3406L2.48152 33.514L2.70165 31.9L1.30747 31.1663L2.84841 30.9465L3.06854 29.3322ZM4.09516 45.4726H4.16921L5.56272 46.2064L6.7371 45.106L6.44358 46.7204L7.8371 47.4541L6.22345 47.6739L5.92961 49.2882L5.19649 47.8204L3.65556 47.9678L4.82961 46.9402L4.09516 45.4726ZM2.84841 40.1907L4.02212 41.2177L5.48934 40.4839L4.7559 41.9518L6.00299 42.9784L4.38901 42.832L3.65556 44.2989L3.36172 42.6856L1.74807 42.5382L3.14159 41.7317L2.84841 40.1907ZM2.40814 34.6881L3.43543 35.9352L4.97603 35.4222L4.02212 36.7423L5.04941 38.0628H4.97603L3.43543 37.5495L2.48152 38.8703V37.256L0.940918 36.8157L2.48152 36.3024L2.40814 34.6881ZM58.6072 26.2506L57.3601 27.2049L57.8737 28.7455H57.8004L56.5533 27.7919L55.2325 28.7455L55.7458 27.2049L54.4257 26.2506H56.039L56.5533 24.71L56.9929 26.2506H58.6072ZM55.9659 23.4626L54.499 22.8022L53.3984 23.9766L53.6182 22.3629L52.1506 21.7022L53.7649 21.4087L53.9854 19.7947L54.7188 21.1886L56.3328 20.895L55.2325 22.0691L55.9659 23.4626ZM53.3984 18.9138V18.9872L51.7837 18.5476L50.9035 19.9411L50.8305 18.3272L49.2895 17.9603L50.7571 17.3732L50.6837 15.6859L51.711 16.933L53.1779 16.3463H53.2519L52.3711 17.6668L53.3984 18.9138ZM49.9503 15.0992L48.3356 14.9521L47.6756 16.4197L47.309 14.8787L45.6944 14.7323L47.0885 13.9255L46.7217 12.3108L47.9687 13.3381L49.3629 12.5313L48.7035 13.9985L49.9503 15.0992ZM45.6944 11.7975L44.0811 11.944L43.7138 13.5583L43.0531 12.0914L41.4391 12.2375L42.6865 11.1371L42.0265 9.67024L43.4207 10.4767L44.5947 9.3764L44.3015 10.9173L45.6944 11.7975ZM40.7057 9.22931L39.2388 9.74329V11.4306L38.2849 10.1102L36.7439 10.6969V10.6235L37.6979 9.30335L36.7439 8.05626V7.98256L38.2849 8.49587L39.1647 7.1754V8.716L40.7057 9.22931ZM59.2679 42.7586L57.6533 42.9054L57.2867 44.446L56.7 42.9784L55.0857 43.1252L56.3328 42.0248L55.7458 40.557L57.0669 41.3644L58.314 40.3372L57.9468 41.8781L59.2679 42.7586ZM57.5065 48.0405L55.8925 47.8204L55.2325 49.2882L54.9393 47.7473L53.325 47.5275L54.7188 46.7204L54.4257 45.106L55.5994 46.2064L56.9929 45.4726H57.0669L56.3328 46.8668L57.5065 48.0405ZM60.2212 37.329H60.1478L58.6072 37.7693L58.4604 39.3836L57.6533 37.9897L56.1123 38.3563H56.039L57.1396 37.1095L56.3328 35.715L57.8004 36.3024L58.827 35.1287L58.6802 36.7423L60.2212 37.329ZM59.9273 31.9L58.4604 32.5604L58.6072 34.1744L57.5799 32.9273L56.1123 33.5877H56.039L56.9198 32.1936L55.8198 30.9465L57.4338 31.3134L58.2406 29.9192L58.3874 31.5332L59.9273 31.9ZM8.46363 55.2733L8.98524 56.3926L9.50652 55.2733H10.3173L8.98524 58.0096L7.65282 55.2733H8.46363ZM16.1368 57.9472L16.6006 56.8279L17.1796 57.9472H17.9327L16.6006 55.2109L15.3263 57.9472H16.1368ZM3.10573 57.9472L3.62701 56.8279L4.20639 57.9472H4.96009L3.62701 55.2109L2.29492 57.9472H3.10573ZM28.0957 58.0717L27.5166 56.89L27.1109 57.9472H26.3001L27.4585 55.2109L28.0957 56.5171L28.7328 55.2109L29.8916 57.9472H29.0805L28.6754 56.89L28.0957 58.0717ZM13.1548 55.2733H12.4599V57.9472H13.1548V55.2733ZM24.3023 55.2109C24.9975 55.2109 25.5772 55.8325 25.5772 56.5789C25.5772 57.3874 24.9975 58.0096 24.3023 58.0096C23.5499 58.0096 22.9702 57.3874 22.9702 56.5789C22.9702 55.8325 23.5499 55.2109 24.3023 55.2109ZM24.8817 56.5789C24.8817 56.2681 24.5925 55.9573 24.3023 55.9573C23.9553 55.9573 23.6651 56.2684 23.6651 56.5789C23.6651 56.9521 23.9553 57.2635 24.3023 57.2635C24.5925 57.2635 24.8817 56.9521 24.8817 56.5789ZM21.2333 57.2011V57.9472C21.1175 58.0096 21.0597 58.0096 20.9435 58.0096C20.2479 58.0096 19.6692 57.3874 19.6692 56.5789C19.6692 55.8325 20.2479 55.2109 20.9435 55.2109C21.0597 55.2109 21.1171 55.2109 21.2333 55.2733V55.9576H20.9435C20.654 55.9576 20.3641 56.2688 20.3641 56.5792C20.3641 56.9524 20.654 57.2638 20.9435 57.2638C21.0597 57.2635 21.1175 57.2635 21.2333 57.2011ZM48.9887 57.9472L49.51 56.8279L50.0316 57.9472H50.8421L49.51 55.2109L48.1776 57.9472H48.9887ZM42.4163 56.89L42.8788 57.9472H43.6906L42.474 55.2109L41.8366 56.5171L41.2582 55.2109L40.041 57.9472H40.8521L41.3153 56.89L41.8366 58.0717L42.4163 56.89ZM38.0727 55.2109C38.7673 55.2109 39.347 55.8325 39.347 56.5789C39.347 57.3874 38.7673 58.0096 38.0727 58.0096C37.3197 58.0096 36.74 57.3874 36.74 56.5789C36.74 55.8325 37.3197 55.2109 38.0727 55.2109ZM38.6518 56.5789C38.6518 56.2681 38.3619 55.9573 38.0727 55.9573C37.7251 55.9573 37.493 56.2684 37.493 56.5789C37.493 56.9521 37.7251 57.2635 38.0727 57.2635C38.3619 57.2635 38.6518 56.9521 38.6518 56.5789ZM34.7136 57.2635C34.366 57.2635 34.1339 56.9521 34.1339 56.5789C34.1339 56.2681 34.366 55.9573 34.7136 55.9573H35.0035V55.273C34.8873 55.2106 34.8298 55.2106 34.7136 55.2106C34.019 55.2106 33.4393 55.8321 33.4393 56.5785C33.4393 57.387 34.019 58.0092 34.7136 58.0092C34.8298 58.0092 34.8873 58.0092 35.0035 57.9468V57.2008C34.8873 57.2635 34.8295 57.2635 34.7136 57.2635ZM44.7029 55.2733V57.9475H45.3989V57.0772H45.862C46.3252 57.0772 46.6732 56.7658 46.6732 56.2684C46.6732 55.5841 46.2097 55.2733 45.6881 55.2733H44.7029ZM45.3985 56.5171V55.8952H45.5141C45.6877 55.8952 45.9195 55.8952 45.9195 56.206C45.9195 56.455 45.7458 56.5174 45.5141 56.5174H45.3985V56.5171ZM57.1831 56.2057L57.5889 55.2733H58.3997L57.5304 57.0769V57.9472H56.8362V57.0769L55.9095 55.2733H56.7193L57.1831 56.2057ZM53.2739 56.0818L53.6793 56.4547V55.2733H54.4333V58.0096L52.9847 56.89V57.9472H52.2316V55.2733L53.2739 56.0818Z" fill="black"/>
<path fill-rule="evenodd" clip-rule="evenodd" d="M12.3749 27.26C12.008 27.0402 11.7882 26.4536 11.7145 26.013C11.6411 25.6461 11.7145 25.3526 11.935 25.0594C12.0814 24.7659 12.522 24.7659 12.7425 24.8389C12.9623 24.986 13.109 25.1324 13.0357 25.3526C12.9623 25.7198 12.5954 25.9396 12.5954 26.3798C12.5954 26.7467 13.1087 26.9669 13.4019 27.0402C14.136 27.26 14.7961 27.1867 15.4565 26.7467C17.8042 24.7659 17.3639 21.2444 20.2257 19.8502L20.5922 19.7772C19.712 20.7308 19.5653 21.6847 19.1987 22.785C19.1987 22.8587 19.4922 22.785 19.639 22.785C20.7393 22.3451 21.3994 21.3908 21.3263 20.2908C21.3263 19.5567 20.7397 18.896 20.0796 18.6765C18.1721 18.0164 16.1906 18.383 14.8701 19.8502C14.0629 20.8038 13.6964 21.6843 13.9899 22.8587C14.0629 23.1522 14.3565 23.4454 14.724 23.5191C15.0906 23.6655 15.4571 23.7389 15.824 23.5191C16.411 23.372 15.1636 22.1983 16.6315 22.1983C16.7776 22.1983 16.9247 22.4188 16.9247 22.6386C16.9981 23.0058 16.7779 23.5191 16.4844 23.7389C15.824 24.1792 14.9438 24.3993 14.1367 24.1792C13.623 24.0328 13.1094 23.6659 12.8159 23.1522C12.4493 22.4918 12.5961 21.2447 13.0363 20.6574C14.1367 18.8233 16.1909 17.8697 18.2451 17.7963C19.8591 17.7229 21.4734 18.1632 22.354 19.4837C22.7208 20.071 22.7209 21.2447 22.2806 21.8314C21.5468 22.859 20.2263 23.3724 18.9789 23.4454C18.6854 25.2065 17.2916 26.8204 15.6039 27.4071C14.65 27.7006 13.2551 27.8471 12.3749 27.26ZM44.95 24.986V24.6191C44.4363 24.986 43.9227 25.2792 43.336 25.0594C43.1162 24.9126 43.1896 24.6191 43.2626 24.399C43.4831 23.7386 43.6292 23.4447 43.9227 22.7113C43.8493 22.5649 43.7022 22.7113 43.6289 22.7113C42.6749 23.4451 42.6016 24.1788 42.162 25.0594H41.2081L41.5012 24.5454C41.2081 24.8389 41.061 24.8389 40.6944 24.986C40.4746 25.0594 40.1808 25.2792 39.8876 25.0594C39.7405 24.9126 39.8135 24.7659 39.7405 24.6191C39.3002 24.986 38.7873 25.3526 38.1996 25.0594C37.9064 24.9126 38.0531 24.5454 38.1262 24.3259L38.6398 23.0788C38.4934 23.1522 38.1996 23.2253 37.9798 23.2986C37.5402 24.2529 36.8061 25.2061 35.6317 25.2795C35.3385 25.2061 34.9723 24.913 34.8989 24.6194C34.8249 24.5457 34.9723 24.5457 34.8989 24.5457C34.532 24.9126 33.945 25.2795 33.2843 25.0597C32.9904 24.913 33.1378 24.4727 33.2115 24.1792C33.5047 23.5191 33.4313 23.5925 33.7979 22.8587C33.945 22.3451 33.3583 22.5649 33.2843 22.785C32.6242 23.5922 32.6242 24.1788 32.1843 24.9863C31.8901 25.0597 31.5239 24.9863 31.23 24.9863C31.5969 24.1788 31.9638 23.5922 32.3307 22.7113C32.3307 22.6382 32.3307 22.4915 32.2566 22.4915C31.7433 22.5649 31.5969 23.0055 31.3031 23.3717L30.4959 25.0594H29.6887C29.6887 24.8389 29.7628 24.6922 29.8352 24.5454C29.4686 24.8389 29.0284 25.2058 28.442 25.0594C28.2942 24.9126 28.2215 24.6922 28.2942 24.4724C28.0014 24.5454 27.7813 24.8389 27.5611 24.986C27.2676 25.0594 26.9738 25.1324 26.6806 25.0594C26.2403 24.5454 26.6072 23.8857 26.9011 23.4451L27.1939 23.0785C26.9741 23.0051 26.6806 23.2249 26.4601 23.0051L26.3144 22.6379C25.5806 23.2983 25.5069 24.1051 25.0666 24.986H24.2595C24.2595 24.6918 24.3335 24.7655 24.4793 24.4724C23.9663 24.8389 23.5257 25.2058 22.8653 24.9126C22.7189 24.7659 22.7919 24.5457 22.7189 24.3993C22.2786 24.7659 21.7653 25.2061 21.1049 24.9126C20.8844 24.7659 20.8114 24.4724 20.9578 24.1788C21.2516 23.0788 22.2789 22.0512 23.3793 21.6843C23.8192 21.6113 24.3335 21.6113 24.6997 21.8308L23.5994 24.0321C23.5994 24.1785 23.5994 24.3256 23.7465 24.399C24.9202 23.8857 25.0669 22.7113 25.5806 21.8308H26.3871C26.3871 22.0512 26.1673 22.2717 26.2403 22.4181C26.6072 22.1246 26.9741 21.611 27.4144 21.6843C27.5615 22.0512 26.9741 22.3447 27.1939 22.7113C27.7079 22.6382 28.0748 22.1246 28.515 21.9782C29.0284 21.6843 29.6887 21.6113 30.2024 21.8311C29.9089 22.6382 29.4693 23.372 29.1017 24.1788C29.1017 24.3259 29.1017 24.3993 29.2488 24.3993C29.7628 24.2529 29.8355 23.8126 30.2024 23.5191L31.1566 21.8314H31.8897C31.8167 21.9785 31.7433 22.1253 31.7433 22.2724C32.1839 21.9788 32.6235 21.612 33.2112 21.8314C33.3576 21.9785 33.3576 22.1253 33.431 22.2724C33.8713 21.9051 34.3843 21.5386 34.9719 21.9051C35.1184 22.1256 34.9719 22.2724 34.8986 22.4191C34.6047 23.1526 34.2385 23.6662 34.0911 24.4C34.1645 24.5464 34.3109 24.4734 34.3843 24.4C35.3382 23.8133 35.045 23.0061 35.8518 22.2727C36.4388 21.8318 37.0996 21.4652 37.833 21.8318C38.1262 22.0522 38.0528 22.4191 38.1262 22.712C38.6398 22.7857 39.0808 22.3454 39.2999 21.9051C39.5204 21.8318 39.8876 21.8318 40.1074 21.9051L39.0808 24.2532C39.0808 24.3266 39.0808 24.3996 39.1535 24.473C40.3272 23.9597 40.4012 22.859 40.9149 21.9051C41.2081 21.8318 41.5012 21.9051 41.7954 21.9051C41.5009 22.712 41.0606 23.2993 40.7675 24.1061C40.7675 24.2532 40.621 24.473 40.8408 24.3996C41.8688 23.813 42.235 22.9324 42.6746 21.9048C42.9685 21.8314 43.1889 21.9048 43.4828 21.9048C43.4828 22.0516 43.3357 22.272 43.3357 22.4188C43.7759 22.0519 44.2896 21.6116 44.8766 21.8314C45.1698 22.0519 45.023 22.4188 44.95 22.6386L44.1425 24.3263C44.1425 24.3996 44.2159 24.4727 44.2896 24.4727C45.3162 24.0324 45.4633 23.0788 45.9769 22.1983C45.7571 22.1983 45.6101 22.1249 45.4633 22.1249C45.3162 21.6116 45.9769 21.9045 46.1234 21.8311L46.7841 20.5106H47.5175L47.0039 21.8311C47.1503 21.9045 47.3708 21.8311 47.5903 21.8311C47.5903 21.9782 47.5903 22.198 47.4445 22.272H47.5179C47.3715 22.272 47.151 22.272 46.7844 22.1983L45.8305 24.3263C45.8305 24.5461 45.6834 24.8396 45.9769 24.9867C46.564 25.06 46.8568 24.473 47.1507 24.0328H47.6643C47.0773 25.06 46.637 25.5 45.9036 25.5C45.6101 25.4993 45.0234 25.2792 44.95 24.986ZM22.0598 24.3256C22.94 23.8853 23.2332 23.0051 23.6734 22.2714C22.8663 22.0509 21.9864 23.298 21.7663 24.1785C21.7663 24.2522 21.913 24.399 22.0598 24.3256ZM35.8521 23.8123C35.8521 24.0321 35.6317 24.3256 35.8521 24.5454C35.9255 24.6918 36.0719 24.6191 36.146 24.5454C36.733 23.8123 37.0259 23.2983 37.1726 22.4181C37.1726 22.2717 37.0262 22.1976 36.9528 22.2717C36.2927 22.6379 36.146 23.1519 35.8521 23.8123ZM27.5621 24.3256C28.5157 23.9587 28.7362 23.0785 29.1761 22.3447C28.3686 22.198 27.7089 23.2983 27.415 24.0321C27.342 24.1785 27.415 24.399 27.5621 24.3256Z" fill="white"/>
</svg>
