<svg width="64" height="64" viewBox="0 0 64 64" fill="none" xmlns="http://www.w3.org/2000/svg">
<g clip-path="url(#clip0_9_859)">
<path fill-rule="evenodd" clip-rule="evenodd" d="M0 0H64V64H0V0Z" fill="white"/>
<path fill-rule="evenodd" clip-rule="evenodd" d="M62.1044 35.3437C61.9785 35.3413 61.8535 35.3641 61.7366 35.4106C61.6196 35.4571 61.5131 35.5265 61.4233 35.6146C61.3335 35.7028 61.2621 35.808 61.2134 35.924C61.1647 36.0401 61.1396 36.1646 61.1396 36.2905C61.1396 36.4164 61.1647 36.5409 61.2134 36.657C61.2621 36.773 61.3335 36.8782 61.4233 36.9664C61.5131 37.0545 61.6196 37.1239 61.7366 37.1704C61.8535 37.2169 61.9785 37.2397 62.1044 37.2373C62.2287 37.2372 62.3519 37.2125 62.4667 37.1647C62.5815 37.1169 62.6858 37.047 62.7735 36.9588C62.8612 36.8707 62.9307 36.7661 62.9779 36.651C63.0251 36.536 63.0492 36.4127 63.0487 36.2883C63.0488 36.1643 63.0244 36.0415 62.9769 35.9269C62.9295 35.8122 62.8599 35.7081 62.7722 35.6204C62.6846 35.5327 62.5804 35.4631 62.4658 35.4156C62.3512 35.3681 62.2284 35.3437 62.1044 35.3437ZM62.1044 37.1234C61.9948 37.1236 61.8862 37.102 61.785 37.0601C61.6837 37.0181 61.5918 36.9566 61.5144 36.879C61.437 36.8014 61.3757 36.7093 61.3341 36.6079C61.2924 36.5065 61.2712 36.3979 61.2716 36.2883C61.2716 36.1791 61.2932 36.0709 61.3351 35.9701C61.377 35.8692 61.4384 35.7775 61.5158 35.7004C61.5931 35.6233 61.6849 35.5621 61.7859 35.5205C61.8869 35.4789 61.9951 35.4576 62.1044 35.4579C62.2134 35.4579 62.3214 35.4794 62.4221 35.5211C62.5229 35.5629 62.6144 35.624 62.6915 35.7011C62.7686 35.7783 62.8297 35.8698 62.8714 35.9706C62.9131 36.0713 62.9345 36.1793 62.9345 36.2883C62.935 36.3977 62.9139 36.5062 62.8725 36.6074C62.831 36.7086 62.77 36.8007 62.6928 36.8783C62.6157 36.9558 62.524 37.0174 62.4231 37.0595C62.3221 37.1016 62.2138 37.1233 62.1044 37.1234Z" fill="black"/>
<path fill-rule="evenodd" clip-rule="evenodd" d="M62.5901 36.0404C62.5901 35.9511 62.5506 35.8571 62.4716 35.8123C62.3919 35.7651 62.3029 35.7605 62.2136 35.7605H61.7523V36.8187H61.8815V36.3306H62.1196L62.4217 36.8187H62.5755L62.2557 36.3306C62.4443 36.3253 62.5901 36.2486 62.5901 36.0404ZM62.0797 36.2287H61.8812V35.8545H62.1833C62.3148 35.8545 62.4589 35.8744 62.4589 36.0381C62.4593 36.2536 62.2282 36.2287 62.0797 36.2287ZM56.5542 30.9242L58.49 28.8572C58.6022 28.7055 58.658 28.5992 58.658 28.5083C58.658 28.3565 58.5275 28.2957 58.1171 28.2957H57.6287V26.9908H62.9155V28.2957H62.2209C61.4186 28.2957 61.2695 28.4169 60.1502 29.8281L57.0878 33.1353V35.1535C57.0878 35.6698 57.3484 35.8515 58.0949 35.8515H59.251V37.1106H51.8461V35.8515H53.0023C53.748 35.8515 54.0093 35.6698 54.0093 35.1535V33.1353L50.4023 29.1451C49.8063 28.4475 49.8886 28.2957 48.2291 28.2957V26.9908H54.9258V28.2957H54.449C53.9639 28.2957 53.7583 28.3867 53.7583 28.5687C53.7583 28.7208 53.9074 28.842 54.0007 28.9632L55.8256 30.9521C56.0425 31.1776 56.3071 31.2068 56.5542 30.9242ZM11.6226 26.9905H13.238V30.6317H11.7461C11.614 29.9038 11.1584 29.6206 10.743 29.2388C9.99357 28.5501 8.37053 27.9766 7.00548 27.9766C5.24364 27.9766 3.75674 28.5232 3.75674 29.3268C3.75674 31.5574 13.8327 29.7823 13.8327 34C13.8327 36.1998 11.6744 37.4287 7.79841 37.4287C6.45661 37.4287 4.42614 37.0123 3.22812 36.3761C2.85257 36.1593 2.69319 36.5813 2.6228 37.1103H0.96655V33.3475H2.46474C2.79513 34.3035 3.25037 34.5004 3.66908 34.8799C4.3956 35.5476 6.1249 36.0334 7.71075 36.0178C10.1018 35.9942 10.924 35.4716 10.924 34.7129C10.924 33.9545 10.1108 33.7722 7.4906 33.3628L5.26589 32.9985C2.75529 32.619 0.927368 32.0578 0.927368 30.0553C0.927368 27.9767 3.23974 26.6717 6.89591 26.6717C8.4366 26.6717 9.72561 26.8776 10.9628 27.5769C11.3055 27.7997 11.6269 27.8262 11.6226 26.9905ZM43.1484 33.0868L43.1803 29.0399C43.1803 28.5089 42.904 28.327 42.1148 28.327H41.1874V27.0678H47.0878V28.327H46.3188C45.5289 28.327 45.2526 28.5093 45.2526 29.0399V37.1873L42.9432 37.169L35.4642 30.0868V35.2302C35.4642 35.7462 35.7405 35.9431 36.5297 35.9431H37.5564V37.1873H31.4285V35.9431H32.4439C33.2332 35.9431 33.5094 35.7459 33.5094 35.2302V29.0399C33.5094 28.5089 33.2332 28.327 32.4439 28.327H31.4285V27.0678H36.7267L43.1484 33.0868ZM23.384 26.5953C18.6816 26.5953 15.738 28.6743 15.738 32.0117C15.738 35.2893 18.6407 37.3523 23.2406 37.3523C28.1263 37.3523 30.9683 35.3195 30.9683 31.845C30.9686 28.7198 27.9018 26.5953 23.384 26.5953ZM23.2771 36.0328C20.6742 36.0328 19.178 34.5306 19.178 31.936C19.178 29.4025 20.7393 27.9003 23.4073 27.9003C25.9667 27.9003 27.4629 29.433 27.4629 32.0426C27.4629 34.5914 25.9448 36.0328 23.2771 36.0328Z" fill="black"/>
</g>
<defs>
<clipPath id="clip0_9_859">
<rect width="64" height="64" fill="white"/>
</clipPath>
</defs>
</svg>
