<svg width="64" height="64" viewBox="0 0 64 64" fill="none" xmlns="http://www.w3.org/2000/svg">
<g clip-path="url(#clip0_9_894)">
<path fill-rule="evenodd" clip-rule="evenodd" d="M0 0H64V64H0V0Z" fill="white"/>
<path fill-rule="evenodd" clip-rule="evenodd" d="M19.6038 31.1192L18.6718 29.0583L17.8852 29.0626L16.7653 31.1198L19.6038 31.1192ZM17.9912 28.6057L18.534 28.6114L18.3066 28.0048L17.9912 28.6057ZM21.4456 29.0218L21.0328 31.1706L48.0574 31.1776L47.2918 29.0244H46.4953L45.9932 29.6101L45.4324 29.0244L21.4456 29.0218ZM25.4179 26.4592L24.0533 23.8183L23.0672 23.8156L21.4844 26.4496L25.4179 26.4592ZM47.2131 28.7027L46.8993 27.8627L46.5749 28.7027H47.2131ZM38.268 23.5138V20.9887H37.6232V20.1879L34.191 20.1846V20.993H33.621L33.4284 21.5834L32.9161 20.743L31.9834 22.8172H31.4754L31.6205 22.2677L30.729 20.1743L30.2346 20.1783L29.2545 22.2783L29.3713 22.8172H28.9879L29.2365 23.5115L38.268 23.5138ZM30.4763 19.4033L30.3043 19.8217H30.6566L30.4763 19.4033ZM37.6232 19.9047V18.6446L38.0824 17.6582L37.6232 17.1794V16.0562H34.2246L34.2213 17.1781L33.7836 17.6618L34.191 18.6403V19.9047H37.6232ZM23.1933 23.6134H23.9885L23.6097 22.8438L23.1933 23.6134ZM18.2554 27.1637L18.2551 26.4701L16.7374 26.8749L18.2554 27.1637ZM23.6193 21.9526L23.6187 21.2593L22.101 21.6644L23.6193 21.9526ZM30.4388 18.5045L30.4381 17.8112L28.9205 18.216L30.4388 18.5045ZM40.4003 21.608L40.3996 20.9147L38.8816 21.3194L40.4003 21.608ZM44.0396 23.8684L44.0389 23.1751L42.5212 23.5802L44.0396 23.8684ZM18.8189 50.2664V49.7306H17.2069V50.2664H17.6993V53.434H17.2069V53.9699H18.8189V53.434H18.3262L18.3278 50.2664H18.8189ZM30.0317 50.3026V50.9773H30.5407V49.7306H27.3958V50.9773H27.9068V50.3026H28.6558V53.434H28.1628V53.9699H29.7754V53.434H29.2827V50.3026H30.0317ZM25.1898 52.7198H24.5012C24.4316 52.8286 24.3476 52.9276 24.2515 53.014C23.8461 53.3666 23.3992 53.4682 22.95 53.3984C22.6056 53.3404 22.2907 53.1681 22.0562 52.9094C21.7334 52.5488 21.6152 52.0962 21.6571 51.6649C21.6709 51.533 21.6995 51.403 21.7424 51.2775C21.7822 51.1616 21.83 51.0646 21.8875 50.9743C22.0024 50.7921 22.1546 50.6363 22.3341 50.5171C22.5735 50.361 22.8506 50.2725 23.1362 50.2607C23.4218 50.249 23.7052 50.3145 23.9567 50.4504C24.1723 50.5651 24.3538 50.7349 24.4826 50.9425H25.0879V49.7306H24.561V50.1974C24.5394 50.1757 24.5175 50.1543 24.4952 50.1333C24.333 49.9762 24.1422 49.8516 23.9331 49.7664C23.5924 49.6296 23.1744 49.5855 22.764 49.6691C22.6249 49.6977 22.4884 49.7402 22.358 49.796C21.912 49.9856 21.541 50.317 21.3025 50.7389C20.9777 51.3176 20.9263 51.9863 21.158 52.6401C21.2244 52.8214 21.3151 52.9937 21.4266 53.1511C21.6488 53.4722 21.9838 53.7232 22.2906 53.8673C22.5987 54.0137 22.8739 54.0645 23.1688 54.0731C23.46 54.0811 23.7936 54.0154 24.126 53.8573C24.2904 53.7783 24.4447 53.678 24.5842 53.5601C24.8664 53.3247 25.0822 53.0087 25.1898 52.7198ZM47.2865 53.4087H45.9966V52.081H47.402V51.5763H45.9966V50.3053H47.2865V50.9249H47.9153V49.7306H44.8773V50.2664H45.37V53.434H44.8773V53.9699H47.9153V52.7756H47.2865V53.4087ZM36.7108 50.2664L36.7088 49.7309H35.1529V50.2664H35.5912C35.5905 51.0394 35.5925 51.8124 35.5899 52.5853C35.5859 52.6906 35.568 52.8496 35.5115 52.9911C35.4823 53.0628 35.4421 53.1305 35.393 53.1906C35.3191 53.2814 35.2255 53.3541 35.1193 53.4033C35.0131 53.4524 34.8971 53.4766 34.7801 53.4742C34.6119 53.4759 34.4474 53.4242 34.3106 53.3264C34.2429 53.2777 34.1834 53.2185 34.1343 53.1511C33.9935 52.9625 33.9676 52.7304 33.9682 52.5159V50.2671H34.4072V49.7316H32.8506L32.8487 50.2671H33.3414C33.342 51.0753 33.3401 51.8824 33.3427 52.6906C33.3493 52.9439 33.4068 53.2122 33.5658 53.4595C33.6113 53.5306 33.6684 53.6033 33.7318 53.6691C33.9083 53.8508 34.1342 53.9766 34.3816 54.031C34.6808 54.101 34.9932 54.0906 35.2871 54.0007C35.5843 53.9065 35.8383 53.7098 36.0039 53.4456C36.1623 53.1989 36.2181 52.9004 36.2181 52.6192V50.2671H36.7108V50.2664ZM42.0504 53.434L41.2951 52.4442C41.5746 52.419 41.8701 52.3589 42.1713 51.9628C42.4352 51.5942 42.4807 51.1971 42.3937 50.7944C42.3657 50.6719 42.3216 50.5537 42.2626 50.4428C42.2002 50.3262 42.1211 50.2194 42.0278 50.1257C41.9334 50.0308 41.8246 49.9514 41.7055 49.8903C41.4681 49.7644 41.1945 49.7312 40.9345 49.7309H39.0194V50.2664H39.5147V53.434H39.0194V53.9699H40.557V53.434H40.136V50.308C40.4341 50.3096 40.7313 50.3016 41.0301 50.3136C41.2124 50.3315 41.4166 50.3538 41.6307 50.6217C41.712 50.7291 41.7683 50.8534 41.7953 50.9853C41.8224 51.1173 41.8196 51.2536 41.7871 51.3844C41.7377 51.5992 41.6074 51.7868 41.4232 51.908C41.2273 52.0401 40.9843 52.0627 40.7592 52.0637L40.3149 52.0607L41.6566 53.9705H42.5631V53.4346H42.0504V53.434ZM51.0809 53.9699V53.6568C51.1313 53.7262 51.1904 53.7896 51.2565 53.8444C51.5158 54.0569 51.807 54.1 52.0955 54.0761C52.4079 54.0497 52.6998 53.9097 52.916 53.6827C53.0981 53.4919 53.2158 53.2489 53.2526 52.9877C53.2822 52.7804 53.2618 52.569 53.1932 52.3712C53.1671 52.2934 53.131 52.2194 53.0856 52.151C52.8101 51.7652 52.4677 51.6629 52.1507 51.572C51.973 51.5248 51.7954 51.4886 51.632 51.4295C51.5245 51.3894 51.3628 51.3173 51.2781 51.1875C51.1496 50.981 51.1237 50.7671 51.2419 50.5307C51.3438 50.3448 51.4903 50.2708 51.6251 50.2266C51.8538 50.1758 52.0862 50.1506 52.3422 50.4052C52.4654 50.5394 52.5056 50.6825 52.5102 50.8276H53.077V49.7302H52.5886V50.0447C52.5165 49.9248 52.3668 49.799 52.2456 49.7498C52.1117 49.693 51.9683 49.6619 51.8229 49.6582C51.5657 49.6543 51.3127 49.7231 51.0928 49.8567C51.0262 49.8978 50.9637 49.9453 50.9062 49.9985C50.5878 50.3129 50.5061 50.6642 50.5546 51.0231C50.5825 51.1965 50.6436 51.3635 50.7731 51.5308C50.9308 51.7327 51.1091 51.8356 51.29 51.9203C51.6363 52.0816 51.9873 52.0836 52.3555 52.2911C52.4488 52.3483 52.57 52.486 52.6039 52.6089C52.6603 52.7749 52.653 52.9698 52.5617 53.1524C52.5219 53.2294 52.4678 53.2982 52.4023 53.355C52.1261 53.5741 51.7874 53.5973 51.4524 53.3921C51.2074 53.2055 51.1625 52.9834 51.1523 52.7683H50.5759V53.9692H51.0809V53.9699ZM21.5833 28.0589C21.574 28.2784 21.5468 28.4972 21.5023 28.7123L42.1889 28.7027C41.7431 28.1322 41.4345 27.4668 41.2868 26.758H39.7156L39.5387 27.0011L39.2488 26.758L26.9638 26.7557L26.4874 27.9301L25.5135 27.9331L26.0325 26.756H21.4256C21.5487 27.1788 21.602 27.6189 21.5833 28.0589ZM44.0492 24.7393L43.3669 26.4353H44.612L44.0492 24.7393ZM44.6924 26.7593H43.2457L42.5876 28.7027H45.3508L44.6924 26.7593ZM49.2869 38.3799L48.8012 36.586L43.9978 36.5876C43.7408 37.0964 43.3818 37.5468 42.9432 37.9108C42.7244 38.0919 42.4875 38.2501 42.2364 38.3829L49.2869 38.3799Z" fill="black"/>
<path fill-rule="evenodd" clip-rule="evenodd" d="M38.253 15.9011C38.2363 15.9231 38.2159 15.942 38.1926 15.9569C40.7199 16.4759 43.1355 17.4378 45.3278 18.798C47.5178 20.1626 49.4471 21.9065 51.0254 23.9478C52.6023 25.9902 53.8028 28.2972 54.5708 30.7606C55.334 33.2252 55.6554 35.8054 55.5201 38.3819H55.8534C56.0364 35.7619 55.7445 33.107 54.9865 30.5926C54.2285 28.0782 53.004 25.7038 51.3976 23.6254C49.7906 21.5469 47.8011 19.7646 45.5586 18.3976C43.3161 17.0307 40.8206 16.0797 38.2391 15.597C38.3128 15.6856 38.3301 15.7866 38.253 15.9011ZM35.9554 11.3138L33.8062 15.6285C33.7763 15.6883 33.7627 15.757 33.8444 15.835C33.8756 15.8599 33.9138 15.8716 33.9506 15.8702H37.9024C37.9492 15.8669 37.9907 15.8712 38.0488 15.7892C38.064 15.7639 38.0719 15.7349 38.0716 15.7054C38.0714 15.6759 38.063 15.647 38.0475 15.6219L35.9554 11.3138ZM35.9554 9.91833L34.4374 10.3234L35.9561 10.6116L35.9554 9.91833ZM33.8354 14.9601C31.753 14.8356 29.6522 15.0013 27.6156 15.4532C25.5789 15.9051 23.605 16.6439 21.7899 17.6572C19.9743 18.6709 18.3169 19.9588 17.1495 21.0037C15.9821 22.0482 15.3047 22.8501 14.6772 23.6868C14.05 24.5238 13.4726 25.3957 12.9699 26.3085C12.4672 27.2209 12.0393 28.1738 11.7335 28.8368C11.4277 29.4999 11.244 29.8744 11.0897 30.2559C10.9349 30.6374 10.8094 31.0269 10.652 31.427C10.4877 31.8401 10.3036 32.2451 10.1002 32.6405L10.843 32.9908C11.0054 32.1579 11.2231 31.3366 11.4944 30.5325C11.6295 30.1301 11.7763 29.7317 12.0655 29.0696C12.355 28.4072 12.787 27.4815 13.2863 26.5927C13.7857 25.7042 14.3521 24.8525 14.9671 24.0348C15.5816 23.2173 16.244 22.4334 17.3825 21.4081C18.5211 20.3828 20.136 19.1161 21.9044 18.1111C23.6728 17.106 25.5939 16.3626 27.5797 15.8928C29.569 15.4233 31.6128 15.2264 33.6551 15.3074L33.8354 14.9601ZM40.4145 22.3597L39.9962 23.5138H40.8847L40.4145 22.3597ZM28.5755 26.4542L27.8374 24.1184L27.0551 26.4532L28.5755 26.4542ZM39.7153 26.4386H41.3273V25.6285L41.6546 25.2354L40.9836 23.8359H39.8869L39.3723 25.234L39.7133 25.6271C39.714 25.8977 39.7166 26.1683 39.7153 26.4386ZM29.365 26.4615H39.1176C38.6781 25.6448 38.3898 24.7554 38.2666 23.8362L29.3923 23.8329C29.6325 24.694 29.6231 25.6056 29.365 26.4615ZM15.9342 38.1395C15.9877 38.1864 16.0315 38.2431 16.0641 38.3062L28.2411 38.3142L28.2348 36.5289L15.9655 36.5355L15.5435 38.0011C15.6867 37.9954 15.8266 38.045 15.9342 38.1395ZM22.2633 34.0619H15.9329L15.9372 35.8223H28.2378C28.2956 35.5152 28.3859 35.2071 28.5157 34.9003C27.1172 34.4589 25.6415 34.3167 24.1844 34.4829C24.1536 34.7268 24.0329 34.9504 23.8461 35.1101C23.5533 35.3532 23.1847 35.4169 22.8198 35.2692C22.5936 35.1731 22.4113 34.9962 22.3084 34.773C22.2055 34.5498 22.1895 34.2963 22.2633 34.0619ZM40.7296 34.0543L35.9328 34.05C36.3825 34.5762 36.7353 35.178 36.9751 35.8273L37.9685 35.8227C38.2039 35.5368 38.4692 35.2755 38.7584 35.0441C39.3389 34.5797 40.0105 34.2425 40.7296 34.0543ZM25.2091 32.9563C26.7211 32.7102 28.2699 32.8242 29.7296 33.289C30.2403 32.9579 30.7692 32.6824 31.2921 32.5688C31.4737 32.5248 31.6576 32.4906 31.8429 32.4665C32.0285 32.4423 32.2151 32.427 32.4954 32.4373C32.7756 32.4476 33.1491 32.4835 33.512 32.5662C33.8749 32.6488 34.2279 32.7787 34.5612 32.9473C34.8942 33.117 35.2061 33.3252 35.4906 33.5675H49.948L48.2165 31.6259L16.4628 31.5817L15.0172 33.5758L23.0144 33.5822C23.7191 33.2887 24.4556 33.0787 25.2091 32.9563ZM39.0844 44.0905C39.0975 44.2536 39.1641 44.4078 39.274 44.5291C39.3558 44.62 39.459 44.689 39.5743 44.7299C39.6896 44.7708 39.8133 44.7822 39.9341 44.7631C40.0768 44.7356 40.2119 44.6776 40.3302 44.5931C40.4846 44.4783 40.539 44.3408 40.5527 44.2017C40.5746 43.8252 40.5872 43.4483 40.5888 43.0715C40.5905 42.6946 40.5822 42.3174 40.5726 42.0007C40.5629 41.6843 40.5513 41.4279 40.538 41.1723C40.5248 40.9166 40.5095 40.6603 40.4985 40.4959C40.4927 40.3924 40.4825 40.2892 40.468 40.1865C40.4467 40.0452 40.4139 39.9058 40.37 39.7698C40.3226 39.6164 40.2369 39.4775 40.121 39.3664C40.0449 39.2844 39.9394 39.2359 39.8276 39.2314C39.7158 39.227 39.6068 39.2669 39.5244 39.3425C39.4277 39.4268 39.3985 39.5487 39.3623 39.6572C39.3216 39.7924 39.2947 39.9313 39.2823 40.0719C39.2714 40.1722 39.2597 40.3083 39.2504 40.4448C39.2408 40.5809 39.2342 40.7174 39.2259 40.8771C39.2096 41.2002 39.1817 41.5876 39.1332 41.9462C39.0264 42.656 39.01 43.3765 39.0844 44.0905ZM50.5855 40.8502C50.4352 40.3081 50.2885 39.765 50.1452 39.221L50.5855 40.8502ZM48.8032 34.0503L42.8054 34.0546C43.0136 34.0938 43.2158 34.1675 43.4001 34.2718C43.6783 34.4295 43.913 34.6538 44.0833 34.9245C44.2535 35.1952 44.3539 35.5039 44.3756 35.823L48.8035 35.8276V34.0503H48.8032Z" fill="black"/>
<path fill-rule="evenodd" clip-rule="evenodd" d="M50.5855 40.8501L50.7256 41.4444C50.7897 41.7197 50.8548 41.9949 50.8209 42.0408C50.7871 42.0866 50.6549 41.9026 50.5234 41.7184C50.3899 41.5589 50.2593 41.3971 50.1316 41.2329C49.9274 40.9739 49.6117 40.5695 49.4234 40.3305C49.2348 40.0921 49.1731 40.019 49.109 39.9483C48.9801 39.8071 48.8412 39.6754 48.6933 39.5542C48.6133 39.4938 48.5184 39.4565 48.4187 39.4463C48.319 39.436 48.2184 39.4532 48.1279 39.4961C48.0681 39.5243 48.013 39.5632 47.9665 39.6107C47.9204 39.6585 47.8829 39.714 47.8556 39.7747C47.6085 40.2998 47.445 40.8604 47.3712 41.4361L47.1839 42.4983C47.0614 43.0401 47.071 43.6079 47.2656 44.173C47.2928 44.2301 47.3303 44.2876 47.3874 44.3417C47.4947 44.4389 47.6327 44.4953 47.7774 44.5012C47.922 44.5071 48.0642 44.4621 48.179 44.3739C48.3619 44.2341 48.4084 44.0512 48.4383 43.8732C48.5376 43.1119 48.6239 42.3485 48.7165 41.5865C49.065 42.3318 49.5013 43.0328 50.0161 43.6746C50.2146 43.8968 50.4115 44.1016 50.6094 44.1807C50.9053 44.2989 51.2087 44.2484 51.5414 44.0266C51.6108 43.9775 51.6749 43.921 51.7327 43.8586C51.8476 43.7334 51.9485 43.5953 52.0328 43.4475C52.3038 42.9827 52.3459 42.4711 52.3267 41.9704C52.3137 41.6317 52.2679 41.2951 52.1899 40.9653C52.1182 40.6658 52.0228 40.3725 51.9047 40.0881C51.7865 39.8038 51.6455 39.5295 51.483 39.268C51.3213 39.006 51.1387 38.7576 50.9368 38.5253C50.7612 38.3343 50.5722 38.2437 50.3734 38.2596C50.3242 38.2663 50.2767 38.2825 50.2339 38.3078C50.0732 38.4087 50.033 38.5472 50.0447 38.684C50.0659 38.8639 50.0998 39.0426 50.1453 39.2205L50.5855 40.8501ZM52.7015 40.21C52.8677 40.4007 53.0955 40.5271 53.3453 40.5672L53.0309 41.2588C52.9785 41.2729 52.9288 41.2956 52.8838 41.3259C52.6673 41.4886 52.6295 41.6885 52.6945 41.8996C52.7128 41.9504 52.7394 41.9986 52.7722 42.0411C52.5614 42.409 52.3735 42.7845 52.3157 43.1517C52.2689 43.4469 52.3838 43.764 52.5096 44.0641C52.5627 44.186 52.6252 44.3042 52.6872 44.422C52.7901 44.6054 52.9473 44.7524 53.1371 44.8427C53.5439 45.0157 54.014 44.9795 54.4775 44.8225C54.8149 44.6923 55.1468 44.5482 55.4723 44.3905C55.7977 44.2328 56.1167 44.0615 56.2957 43.9599C56.4753 43.8586 56.5148 43.827 56.5487 43.7895C56.7094 43.594 56.7011 43.3625 56.57 43.1195C56.5342 43.0602 56.4894 43.0069 56.4371 42.9615C56.1738 42.7344 55.8588 42.7954 55.5609 42.8306C55.2405 42.8977 54.9317 42.9827 54.6173 43.0587C54.2906 43.1763 53.9636 43.2941 53.8995 43.1653C53.8347 43.0362 54.0316 42.6603 54.2288 42.2848C54.3364 42.3017 54.4447 42.312 54.5532 42.3117C54.9112 42.3113 55.2691 42.317 55.6277 42.3104C55.6343 42.309 55.6413 42.3077 55.6894 42.2944C55.7957 42.2659 56.0181 42.2038 56.1888 42.151C56.2788 42.1294 56.3996 42.0328 56.4405 41.9455C56.4826 41.8558 56.4993 41.7562 56.4888 41.6577C56.4783 41.5592 56.4409 41.4654 56.3807 41.3867C56.2575 41.225 56.0915 41.1868 55.9325 41.1605C55.5493 41.1297 55.1648 41.1197 54.78 41.0995L54.8162 40.7083C55.1236 40.7259 55.4328 40.7203 55.7409 40.6887C56.1845 40.6429 56.5988 40.5526 57.0145 40.4723C57.1042 40.4537 57.1968 40.4145 57.2838 40.3391C57.4478 40.1884 57.4854 40.0403 57.396 39.8617C57.3159 39.724 57.2247 39.5932 57.1231 39.4705C56.9655 39.2959 56.7704 39.1593 56.5523 39.071C56.3343 38.9827 56.0991 38.9451 55.8644 38.9609C55.0277 39.0044 54.2166 39.0103 53.3652 39.265C53.161 39.3258 52.9598 39.3982 52.7639 39.4812C52.6843 39.5169 52.6208 39.5809 52.5856 39.6608C52.5256 39.8188 52.5392 40.0114 52.7015 40.21ZM42.7756 40.6698C44.0403 40.5211 45.3027 40.3816 46.5687 40.2232C46.6938 40.1973 46.8502 40.1618 47.0103 40.0161C47.1816 39.853 47.2171 39.7152 47.1667 39.5555C47.1461 39.4881 47.0747 39.3962 46.9651 39.3029C46.9103 39.257 46.8502 39.2177 46.7861 39.186C46.7147 39.1516 46.6396 39.1252 46.5624 39.1073C46.1863 39.019 45.8008 38.9769 45.4145 38.9818C45.1124 38.9808 44.8103 38.992 44.5091 39.0153C43.8339 39.0737 43.168 39.2128 42.5259 39.4297C42.3023 39.5095 42.0891 39.616 41.8911 39.7471C41.796 39.8096 41.705 39.8783 41.6188 39.9526C41.3535 40.1854 41.2519 40.4035 41.1862 40.6449C41.1367 40.887 41.1826 41.1388 41.3144 41.3478C41.3798 41.4507 41.4648 41.5417 41.564 41.6128C41.7566 41.7542 41.996 41.7954 42.2205 41.8362C42.6627 41.9162 43.1129 41.8219 43.5575 41.8236C43.9656 41.8273 44.381 41.8203 44.7937 41.9056C45.1645 41.9812 45.5202 42.118 45.8462 42.3104C45.9617 42.393 45.9803 42.4966 45.9362 42.6092C45.9016 42.6919 45.7104 42.8436 45.5659 42.9339C45.508 42.9702 45.448 43.0033 45.3863 43.0328C44.4311 43.4548 43.4148 43.4764 42.4104 43.1414C42.3805 43.1251 42.3519 43.1112 42.3214 43.0521C42.2968 42.9857 42.2806 42.9103 42.3838 42.8237C42.4824 42.7732 42.5913 42.7519 42.6976 42.7446C42.8915 42.7357 43.1535 42.7838 43.3978 42.8984C43.7946 43.0724 44.2323 43.1318 44.6612 43.0697C44.8745 43.0384 45.0825 42.9775 45.2791 42.8887C45.3326 42.8637 45.376 42.8212 45.4023 42.7682C45.4284 42.7153 45.437 42.6554 45.4268 42.5972C45.4106 42.5142 45.3349 42.3894 45.1868 42.2649C45.0317 42.142 44.8295 42.0643 44.6323 42.0145C44.5387 41.9923 44.4436 41.9769 44.3477 41.9684C44.1673 41.9493 43.9862 41.9361 43.8049 41.9289C43.4193 41.9147 43.0331 41.9311 42.6501 41.9777C42.5073 41.9953 42.4243 42.0125 42.3433 42.0364C42.262 42.06 42.1826 42.0898 42.1059 42.1257C42.0316 42.16 41.96 42.2 41.8918 42.2453C41.5856 42.4641 41.4963 42.6839 41.4684 42.9223C41.4634 42.9931 41.4688 43.0643 41.4847 43.1334C41.5003 43.2028 41.5262 43.2696 41.584 43.3682C41.6411 43.4668 41.7304 43.5966 41.8336 43.7145C41.9372 43.832 42.0554 43.9376 42.1833 44.0289C42.3286 44.1313 42.4863 44.2148 42.6528 44.2773C42.8563 44.3573 43.1256 44.441 43.4005 44.4997C43.6747 44.5585 43.955 44.5924 44.2352 44.6C44.5161 44.6073 44.7966 44.5887 44.9979 44.5655C45.1991 44.5422 45.3196 44.5143 45.4388 44.4811C45.6719 44.4172 45.8983 44.3309 46.1148 44.2235C46.2094 44.175 46.2861 44.1295 46.3592 44.0781C46.4325 44.0273 46.5026 43.9715 46.5687 43.9111C46.7822 43.7138 46.898 43.5312 46.9681 43.3413C46.9933 43.2732 47.0136 43.2032 47.0279 43.084C47.0591 42.8466 47.0504 42.4601 46.9253 42.1427C46.8687 41.9878 46.7918 41.841 46.6965 41.7064C46.6075 41.5801 46.5002 41.4677 46.3781 41.373C46.1358 41.1873 45.8453 41.0749 45.541 41.0493C44.8846 40.9769 44.2252 40.9318 43.5658 40.8225C43.3012 40.7779 43.0378 40.727 42.7756 40.6698ZM18.3209 41.8953C18.3694 41.564 18.4298 41.1855 18.5214 40.8093C18.5689 40.616 18.625 40.4254 18.6768 40.2551C18.7286 40.0848 18.7751 39.935 18.8176 39.784C18.8598 39.6332 18.898 39.4812 18.9209 39.3792C18.9644 39.187 18.961 39.1359 18.96 39.022C18.9577 38.9283 18.9431 38.8267 18.8794 38.7321C18.7359 38.5316 18.5497 38.5037 18.3634 38.5286C18.2206 38.5508 18.1071 38.6773 18.0118 38.8035C17.9735 38.8536 17.937 38.905 17.9022 38.9576C17.8543 39.0301 17.8114 39.1059 17.7737 39.1843C17.7133 39.3049 17.626 39.4918 17.5459 39.682C17.3135 40.2312 17.1412 40.8431 17.0257 41.4079C16.9898 41.5938 16.9626 41.7811 16.9437 41.969C16.9078 42.3316 16.9051 42.6826 16.9098 43.0149C16.9114 43.1749 16.9138 43.3353 16.9284 43.4754C16.9427 43.6155 16.9696 43.7351 17.0137 43.8483C17.0579 43.9615 17.119 44.0684 17.195 44.1631C17.3414 44.3407 17.5091 44.4675 17.6466 44.5319C17.8813 44.6425 18.0901 44.6581 18.3345 44.6309C18.6619 44.596 18.977 44.422 19.3034 44.2026C19.3791 44.1508 19.4524 44.0967 19.561 44.0107C19.8386 43.7893 20.1089 43.559 20.3715 43.32C20.3621 43.575 20.3642 43.8303 20.3778 44.085C20.3917 44.3397 20.4173 44.5934 20.4406 44.7683C20.4638 44.943 20.4844 45.0383 20.5116 45.1322C20.571 45.3308 20.6398 45.4981 20.7573 45.6791C20.8197 45.7747 20.9001 45.879 20.997 45.9646C21.094 46.0506 21.2072 46.1184 21.3291 46.1635C21.4509 46.2087 21.5807 46.2306 21.6684 46.2366C21.756 46.2425 21.8012 46.2319 21.8437 46.2153C21.9181 46.1834 21.9868 46.1426 22.0505 46.035C22.106 45.9394 22.1462 45.8129 22.1508 45.697C22.1535 45.6366 22.1478 45.5762 22.1462 45.4619C22.1445 45.3477 22.1465 45.1797 22.1458 45.0124C22.1455 44.8444 22.1422 44.6767 22.1422 44.4187C22.1422 44.1611 22.1455 43.8128 22.1661 43.4655C22.2076 42.7792 22.3145 42.0882 22.4822 41.4039C22.8408 41.3116 23.199 41.2173 23.3936 41.1645C23.5885 41.1124 23.6197 41.1018 23.6502 41.0888C23.6808 41.0759 23.7103 41.0616 23.7389 41.045C23.7973 41.0128 23.8963 40.9314 23.9985 40.8275C24.3966 40.4112 24.4923 39.956 24.2891 39.4808C24.2319 39.3346 24.1569 39.1961 24.0656 39.0685C24.0212 39.0075 23.9697 38.9521 23.9122 38.9034C23.8549 38.8553 23.7912 38.8154 23.723 38.7849C23.6455 38.7501 23.5634 38.7265 23.4792 38.7148C23.2761 38.6803 22.9722 38.6803 22.7153 38.7849C22.5901 38.833 22.4719 38.8991 22.2873 39.0339C22.054 39.2074 21.8292 39.392 21.6136 39.5871C21.1982 39.5518 20.7908 39.4522 20.406 39.2919C20.3252 39.2585 20.2498 39.213 20.1826 39.1571C20.1245 39.1075 20.0756 39.048 20.0381 38.9815C20.0016 38.9147 19.9784 38.8403 19.9555 38.7939C19.9063 38.7009 19.8585 38.6972 19.8067 38.6753C19.7475 38.6556 19.6833 38.6567 19.6248 38.6783C19.5381 38.7132 19.4465 38.7417 19.3601 38.8802C19.3127 38.9556 19.2589 39.0711 19.2346 39.1581C19.2104 39.2451 19.2157 39.3032 19.2253 39.3962C19.235 39.4895 19.2482 39.6183 19.2858 39.7401C19.3645 39.9858 19.5012 40.1711 19.7748 40.362C19.9116 40.459 20.0886 40.5672 20.2669 40.6725C20.4455 40.7771 20.6258 40.8783 20.8088 40.9749C20.6798 41.4262 20.5784 41.8849 20.505 42.3485L19.9784 42.2987L18.7505 42.7104C18.6111 42.7732 18.4527 42.7805 18.294 42.7041C18.1841 42.6284 18.1658 42.5262 18.2429 42.4176L18.2601 42.3635C18.2774 42.2098 18.2977 42.057 18.3209 41.8953ZM6.84143 37.9279L6.83313 37.9276L7.05426 38.0169C6.98962 37.974 6.91739 37.9438 6.84143 37.9279Z" fill="black"/>
<path fill-rule="evenodd" clip-rule="evenodd" d="M16.8426 43.1816C16.8399 43.0076 16.8355 42.8336 16.8297 42.6597C16.8278 42.5769 16.8226 42.4943 16.8141 42.412C16.8074 42.3522 16.7985 42.2931 16.7138 41.8436C16.6018 41.249 16.4871 40.655 16.3695 40.0616C16.2709 39.5679 16.2337 39.4201 16.1905 39.274C16.1042 38.9818 15.9931 38.6974 15.8585 38.424C15.8318 38.3826 15.7977 38.3465 15.7579 38.3174C15.7178 38.2889 15.6728 38.268 15.6251 38.2557C15.5272 38.2311 15.3824 38.2481 15.237 38.3022C15.1597 38.3327 15.0883 38.3763 15.0258 38.431C14.8804 38.5535 14.798 38.7554 14.6612 38.9171C14.5875 39.012 14.5095 39.1037 14.4208 39.2073C14.3242 39.3189 14.2305 39.433 14.1399 39.5496C14.047 39.6708 13.9603 39.7973 13.8312 39.9998C13.702 40.2024 13.5307 40.4813 13.3687 40.7661C13.2069 41.0507 13.0546 41.3404 12.9121 41.6351L12.5246 41.6025C12.7385 40.967 12.8821 40.31 12.953 39.6432C13.0247 38.9662 13.0263 38.2487 12.929 37.5189C12.8782 37.1477 12.7986 36.7802 12.6903 36.4216C12.5821 36.063 12.445 35.713 12.336 35.4634C12.256 35.2754 12.1634 35.093 12.0588 34.9175C11.8784 34.6142 11.6688 34.3293 11.4329 34.0668C11.2965 33.9108 11.1305 33.7305 10.9635 33.5512C10.7964 33.3719 10.6284 33.1936 10.4986 33.0675C10.3688 32.9413 10.2772 32.8669 10.1779 32.8048C10.0786 32.7427 9.97202 32.6923 9.86046 32.6557C9.76164 32.624 9.6602 32.601 9.55732 32.587C9.42352 32.5701 9.387 32.5897 9.31163 32.6315C9.20272 32.7055 9.16819 32.8012 9.20139 32.9014C9.20903 32.923 9.22065 32.9436 9.2917 33.0299C9.36276 33.1166 9.49391 33.2687 9.62273 33.4231C9.86976 33.7186 10.0833 33.9981 10.2287 34.2568C10.3004 34.3809 10.3668 34.5078 10.4478 34.6765C10.5285 34.8445 10.6235 35.054 10.7168 35.2641C10.897 35.6722 11.0637 36.059 11.1683 36.4269C11.2198 36.6062 11.2603 36.7881 11.2902 36.9721C11.3201 37.156 11.3393 37.3413 11.3503 37.5462C11.3818 38.177 11.3493 38.8786 11.2443 39.543C11.1394 40.2196 10.9299 40.8759 10.6235 41.4883C10.152 42.4015 9.41682 43.1518 8.51343 43.6418C8.20454 43.8134 7.85774 43.9053 7.50441 43.9091C7.33913 43.9131 7.17481 43.883 7.02164 43.8208C6.94825 43.7916 6.87786 43.7553 6.81147 43.7125C6.70493 43.6441 6.6173 43.5499 6.55662 43.4388C6.49593 43.3276 6.46415 43.203 6.46417 43.0764C6.80992 42.788 7.13253 42.4729 7.42904 42.1341C7.71624 41.8047 7.95995 41.4833 8.14522 41.1845C8.23619 41.0387 8.32119 40.8887 8.40154 40.7366C8.48222 40.5842 8.55859 40.4291 8.63429 40.2113C8.70999 39.9929 8.7847 39.7116 8.81857 39.4248C8.85243 39.1379 8.8448 38.8457 8.79665 38.5608C8.75123 38.3044 8.68004 38.0532 8.58416 37.8111C8.50879 37.6242 8.44769 37.5272 8.37465 37.4409C8.30129 37.3543 8.21586 37.2787 8.12098 37.2164C7.81253 37.0199 7.44896 36.9767 7.09701 37.0086C6.97649 37.0202 6.85696 37.0431 6.6521 37.1172C6.44724 37.1919 6.15738 37.3177 5.89475 37.4877C5.63141 37.6584 5.39741 37.8705 5.20181 38.1159C5.02312 38.3452 4.87128 38.5942 4.74926 38.858C4.646 39.0794 4.59387 39.2465 4.54606 39.4141C4.4076 39.8969 4.29637 40.4202 4.28475 40.9129C4.28077 41.0729 4.28641 41.2336 4.30335 41.3927C4.32028 41.552 4.34817 41.7101 4.39266 42.0083C4.43715 42.3057 4.49791 42.743 4.55701 43.1806C4.44934 43.3007 4.30655 43.3838 4.14895 43.418C4.07093 43.4356 3.98958 43.4413 3.85876 43.4217C3.72761 43.4014 3.54732 43.3559 3.38031 43.2789C3.2133 43.2019 3.06024 43.094 2.92942 42.9638C2.79847 42.8331 2.69068 42.6811 2.61068 42.5143C2.43769 42.1696 2.43836 41.7768 2.42873 41.4026C2.42761 41.2083 2.43581 41.0141 2.4533 40.8206C2.47056 40.6274 2.49746 40.4348 2.54593 40.1811C2.59408 39.9274 2.6638 39.613 2.74249 39.3006C2.82118 38.9881 2.9085 38.6777 3.02936 38.3271C3.14989 37.9765 3.30428 37.586 3.48889 37.2098C3.67349 36.8336 3.88865 36.472 4.13235 36.1314C4.34986 35.8324 4.58224 35.5445 4.82861 35.2688C5.0089 35.0662 5.09656 34.9809 5.18454 34.8956L5.42427 34.6658C5.50958 34.5878 5.58842 34.503 5.66 34.4122C5.80742 34.2276 5.86719 34.108 5.76293 33.938C5.69553 33.8427 5.60323 33.8245 5.51557 33.8178C5.4837 33.8165 5.45149 33.8192 5.37745 33.8401C5.15878 33.9057 4.94851 33.9966 4.75092 34.111C4.5019 34.2601 4.27313 34.4404 4.04104 34.616C3.91226 34.7159 3.78605 34.8191 3.66254 34.9255C3.45623 35.102 3.26457 35.295 3.08946 35.5025C3.0038 35.6038 2.92179 35.7081 2.79163 35.8966C2.62518 36.1377 2.4678 36.3849 2.31982 36.6377C2.15613 36.9186 2.00772 37.2081 1.87424 37.5043C1.63189 38.0444 1.43401 38.6034 1.28257 39.1757C1.21763 39.4165 1.15862 39.6589 1.1056 39.9025C1.0313 40.2384 0.982132 40.5793 0.958516 40.9225C0.912032 41.5544 0.951211 42.1756 1.17998 42.824C1.23543 42.9734 1.30349 43.1175 1.38783 43.2517C1.47216 43.3858 1.57276 43.51 1.68665 43.6199C1.9194 43.8434 2.18004 43.9948 2.42574 44.1073C2.55091 44.1654 2.67907 44.2169 2.80956 44.262C3.17911 44.3895 3.5181 44.4566 3.86076 44.3899C4.16124 44.3304 4.41059 44.2006 4.66492 44.1472C4.74793 44.1269 4.83127 44.1096 4.9156 44.0954C5.01255 44.2079 5.11117 44.3185 5.21077 44.4287C5.31038 44.539 5.41065 44.6485 5.55077 44.7803C5.69088 44.9121 5.87117 45.0659 6.06939 45.1917C6.26761 45.3172 6.48442 45.4152 6.70987 45.4852C6.93565 45.5553 7.16973 45.5975 7.48847 45.6008C7.80722 45.6041 8.21029 45.5679 8.60308 45.4826C8.99595 45.3974 9.37609 45.2616 9.73396 45.0785C10.0906 44.8955 10.4219 44.6648 10.6507 44.4882C10.8795 44.3115 11.0063 44.1887 11.1301 44.0632C11.3696 43.8242 11.5938 43.5705 11.8015 43.3035C11.9658 43.0913 12.0415 42.9645 12.1345 42.7958C12.1797 42.7128 12.2212 42.6278 12.2594 42.5412L12.6143 42.6454L12.2683 43.7604C12.2223 43.9046 12.206 44.0567 12.2202 44.2074C12.2344 44.3581 12.2789 44.5044 12.351 44.6376C12.3968 44.7202 12.4519 44.7903 12.5183 44.8471C12.6551 44.9639 12.8361 45.0194 13.0051 45.0048C13.0921 44.9975 13.1771 44.9719 13.2392 44.9447C13.3012 44.9175 13.3401 44.8886 13.3763 44.8564C13.5456 44.7083 13.5871 44.5409 13.6585 44.3756C13.79 44.031 13.9308 43.684 14.0533 43.3417C14.0682 43.2952 14.0815 43.2484 14.0945 43.2016L15.5318 43.1747C15.5481 43.347 15.565 43.519 15.5756 43.6176C15.5859 43.7165 15.5896 43.7418 15.5946 43.7667C15.6064 43.8276 15.6259 43.8869 15.6527 43.943C15.6762 43.9964 15.7144 44.0788 15.7556 44.1601C15.7971 44.2411 15.8412 44.3208 15.8801 44.3816C15.9651 44.5154 16.0315 44.5665 16.1155 44.619C16.2941 44.7153 16.4741 44.7677 16.6663 44.5104C16.7234 44.4277 16.748 44.3703 16.7726 44.2906C16.8021 44.193 16.828 44.0661 16.8387 43.9513C16.8443 43.8922 16.847 43.8331 16.8476 43.7049C16.8483 43.5754 16.8463 43.3785 16.8426 43.1816ZM6.11787 41.7635C6.07076 41.5828 6.0356 41.3991 6.01262 41.2137C5.96581 40.8344 5.96938 40.4506 6.02324 40.0722C6.0508 39.8634 6.09131 39.6323 6.14011 39.4025C6.18892 39.1734 6.2457 38.9456 6.28587 38.7966C6.34729 38.5529 6.44062 38.3185 6.56345 38.0993C6.58104 38.0684 6.60296 38.0399 6.62852 38.0153C6.69227 37.9638 6.73776 37.9177 6.83305 37.9273L6.81678 37.9203C6.86137 37.9124 6.9073 37.9172 6.9493 37.9341C6.99129 37.9511 7.02765 37.9796 7.05418 38.0163C7.11992 38.1069 7.16342 38.1979 7.18898 38.2965C7.23746 38.5658 7.23912 38.8055 7.22617 39.0668C7.22053 39.1704 7.21156 39.274 7.19064 39.4284C7.1643 39.6172 7.13274 39.8052 7.09602 39.9922C7.05824 40.1892 7.01081 40.3842 6.95391 40.5766C6.90595 40.7393 6.84131 40.8966 6.761 41.046C6.68296 41.188 6.58881 41.3204 6.48044 41.4408C6.37235 41.5619 6.25069 41.6702 6.11787 41.7635ZM15.2559 41.6284C15.0975 41.7466 14.9508 41.7187 14.8372 41.5743L15.1692 40.9126L15.3147 41.554C15.2994 41.582 15.2795 41.6071 15.2559 41.6284Z" fill="black"/>
<path fill-rule="evenodd" clip-rule="evenodd" d="M10.4886 35.1791C10.3929 35.0046 10.3013 34.828 10.2137 34.6492C10.1075 35.8718 10.0597 37.0953 10.0706 38.3198H10.3356C10.3621 37.2726 10.4129 36.2254 10.4886 35.1791ZM37.7998 36.5873L37.1779 36.5697L38.0584 38.3825C37.8395 37.8109 37.7511 37.1975 37.7998 36.5873ZM38.9436 40.3916C38.7407 39.7893 38.4625 39.1688 37.9754 38.5698C37.397 37.7741 36.7003 37.0715 35.9095 36.4863C35.37 36.0422 34.7996 35.637 34.2026 35.2738C33.9043 35.0923 33.5997 34.9212 33.2895 34.7608C32.5314 34.3763 31.7427 34.0554 30.9315 33.8016C29.3061 33.2941 27.6073 33.062 25.9053 33.1146C25.3019 33.1197 24.7026 33.2153 24.1276 33.3982C23.9387 33.4599 23.7561 33.5336 23.5784 33.6176C23.2223 33.7854 22.8869 33.9941 22.579 34.2395C22.3904 34.379 22.3596 34.5516 22.43 34.7385C22.4671 34.8418 22.588 34.9298 22.7079 34.9852C22.7686 35.0148 22.8569 35.0387 22.9582 35.0497C23.2159 35.0666 23.511 34.9809 23.7989 34.8083C23.864 34.7628 23.9672 34.6682 23.938 34.5798C23.934 34.5403 23.8786 34.4713 23.8208 34.4633C23.7211 34.4383 23.616 34.445 23.5203 34.4826C23.6984 34.3635 23.896 34.2764 24.104 34.2252C24.2076 34.1993 24.3139 34.1827 24.5712 34.1678C24.8285 34.1529 25.2376 34.1399 25.6463 34.1519C26.4642 34.1773 27.2767 34.2947 28.0684 34.5018C28.7617 34.6995 29.4474 34.9226 30.1243 35.1705C30.7346 35.3951 31.3385 35.6365 31.9355 35.8943C32.4027 36.0962 32.6693 36.2267 32.9306 36.3681C33.4528 36.6514 33.9496 36.979 34.4158 37.3473C34.705 37.586 34.9942 37.8247 35.2677 38.0794C35.5413 38.3347 35.7996 38.6066 36.0576 38.8782C36.4695 39.3307 36.7976 39.8528 37.0265 40.4202C37.2277 40.8933 37.2518 41.4231 37.0945 41.9126C37.0164 42.1553 36.8959 42.3823 36.7386 42.583C36.5816 42.7832 36.389 42.9545 36.0805 43.1401C35.7724 43.3251 35.3478 43.524 34.9088 43.6817C34.0292 43.9979 33.0979 44.1457 32.1636 44.1173C31.5506 44.0938 30.9393 44.0379 30.3322 43.9496L30.3003 40.6469C31.5105 40.7475 32.7039 40.9959 33.8536 41.3867C33.7916 41.5166 33.6993 41.6297 33.5844 41.7164C33.502 41.7802 33.4217 41.8502 33.3423 41.9286C33.3191 41.9596 33.3045 41.9962 33.3 42.0347C33.2954 42.0731 33.3011 42.1121 33.3164 42.1477C33.3274 42.1716 33.3423 42.1945 33.3742 42.2237C33.4061 42.253 33.4539 42.2891 33.5047 42.3204C33.6428 42.4 33.8341 42.4379 34.0313 42.4273C34.3321 42.3994 34.6054 42.247 34.8975 41.9641C34.9805 41.8794 35.0499 41.7821 35.1031 41.6766C35.2897 41.2931 35.2833 40.8349 34.9453 40.3966C34.8846 40.3174 34.8167 40.2439 34.7425 40.1771C34.668 40.1109 34.5877 40.0515 34.5024 39.9998C34.0468 39.7405 33.5588 39.5427 33.0511 39.4118C32.788 39.3463 32.5216 39.2948 32.2529 39.2578C31.6315 39.1665 31.0047 39.1169 30.3767 39.1093C30.3586 38.5853 30.289 38.0642 30.1688 37.5538C30.134 37.3962 30.0845 37.2423 30.0211 37.0939C29.9796 36.995 29.953 36.9462 29.9148 36.8738C29.869 36.7805 29.7471 36.659 29.6356 36.6118C29.524 36.5624 29.3989 36.5471 29.2597 36.6799C29.2365 36.7051 29.2175 36.7339 29.2036 36.7652C29.0858 37.0519 28.9956 37.349 28.934 37.6527C28.9035 37.8045 28.8809 37.9575 28.8573 38.1395C28.8108 38.508 28.7561 38.9566 28.6863 39.369C28.1176 39.4341 27.5552 39.5463 27.0049 39.7043C26.6139 39.8194 26.2361 39.9756 25.878 40.1705C25.6091 40.3152 25.3617 40.4968 25.1429 40.71C25.0446 40.8118 24.9708 40.9346 24.9272 41.0692C24.8836 41.2038 24.8713 41.3466 24.8913 41.4866C24.9245 41.7088 25.0281 41.9063 25.1805 42.1185C25.2223 42.1743 25.2678 42.2277 25.3541 42.319C25.4404 42.41 25.5679 42.5395 25.6971 42.667C25.9454 42.9114 26.1792 43.1322 26.3963 43.3078C26.5009 43.3931 26.6088 43.4745 26.7191 43.5522C26.8296 43.6295 26.9425 43.7036 27.1288 43.8185C27.622 44.1188 28.1188 44.4133 28.6189 44.702L28.6598 44.8853L28.7139 45.124C28.7371 45.2253 28.768 45.3554 28.7989 45.4859C28.8398 45.6479 28.9333 45.7918 29.0648 45.895C29.2807 46.0593 29.5423 46.0922 29.7794 46.0062C29.8667 45.9746 29.958 45.9262 30.0387 45.8634C30.1193 45.801 30.1894 45.7243 30.2449 45.6383C30.3003 45.5523 30.3411 45.457 30.3657 45.3574C30.9964 45.4458 31.631 45.5047 32.2672 45.5337C32.7336 45.5568 33.2011 45.5432 33.6654 45.4932C34.2886 45.4231 34.9709 45.2937 35.5978 45.0533C36.4197 44.7446 37.1742 44.2801 37.82 43.6853C37.9369 43.5754 38.0478 43.4589 38.1521 43.3367C38.3605 43.0924 38.5427 42.8269 38.6956 42.5445C39.0701 41.8814 39.1607 41.1334 38.9436 40.3916ZM27.3436 43.0146C27.1504 42.917 26.9644 42.8048 26.8004 42.6969C26.6364 42.589 26.4936 42.4854 26.3558 42.3751C26.1003 42.1694 25.8636 41.9413 25.6486 41.6935C25.5822 41.6158 25.5693 41.5899 25.5616 41.5627C25.5493 41.5219 25.549 41.4784 25.5605 41.4374C25.5721 41.3964 25.5952 41.3596 25.627 41.3313C25.6476 41.3123 25.6722 41.2977 25.7814 41.2556C26.2612 41.0719 26.7595 40.941 27.2676 40.8654C27.3692 40.8501 27.4279 40.8438 27.5468 40.8332C27.7059 40.8194 27.8652 40.8078 28.0246 40.7984C28.2042 40.7884 28.3842 40.7824 28.5638 40.7808L28.5641 43.426C28.14 43.347 27.729 43.2086 27.3436 43.0146ZM44.0239 35.375C44.0144 35.2707 43.9841 35.1694 43.935 35.0769C43.8919 34.9967 43.8363 34.9238 43.7703 34.8611C43.6715 34.7666 43.5509 34.698 43.4192 34.6615C43.2876 34.6249 43.1489 34.6215 43.0156 34.6516C42.9766 34.5518 42.914 34.4629 42.8332 34.3927C42.7523 34.3224 42.6556 34.2728 42.5514 34.2481C42.3201 34.1889 42.0826 34.1578 41.8438 34.1555C41.691 34.1544 41.5383 34.1659 41.3873 34.19C41.1695 34.2212 40.8531 34.278 40.5456 34.367C40.2382 34.456 39.94 34.5772 39.6551 34.7256C39.3713 34.8737 39.1007 35.0493 38.8496 35.2482C38.7467 35.3323 38.6498 35.4237 38.5598 35.5215C38.174 35.9484 37.9442 36.4193 37.9386 36.8718C37.9352 36.9917 37.9462 37.1122 37.9611 37.2108C37.991 37.3987 38.0352 37.5302 38.0953 37.6843C38.158 37.8407 38.2573 38.0203 38.3626 38.2162L38.515 38.4977C38.5525 38.5688 38.5721 38.6053 38.5973 38.6369C38.6231 38.6687 38.6548 38.6953 38.6906 38.7152C38.7683 38.7637 38.9048 38.773 39.0439 38.7541C39.1222 38.7421 39.1996 38.7179 39.271 38.682C39.3424 38.6468 39.4084 38.6003 39.4622 38.5366C39.516 38.4725 39.5582 38.3912 39.61 38.3752C39.6624 38.3593 39.7249 38.4098 39.7889 38.4446C39.853 38.4795 39.9188 38.4997 39.9862 38.513C40.0529 38.5266 40.121 38.5333 40.2305 38.5333C40.3394 38.5333 40.4898 38.5263 40.6197 38.5183C40.7488 38.5104 40.8571 38.5007 40.9314 38.4924C41.0058 38.4841 41.0477 38.4762 41.1383 38.4589C41.3249 38.426 41.6526 38.3536 41.9139 38.2437C42.1792 38.1408 42.4883 37.9642 42.8057 37.7132C43.1208 37.4606 43.3971 37.163 43.6255 36.83C43.8506 36.5063 43.9758 36.1908 44.018 35.8558C44.0384 35.6963 44.0404 35.535 44.0239 35.375ZM39.699 36.219C39.4653 36.4317 39.2462 36.6599 39.0432 36.902C39.1114 36.6238 39.2356 36.3624 39.4083 36.1339C39.581 35.9054 39.7986 35.7145 40.0476 35.5729C40.4215 35.3607 40.8305 35.2173 41.2552 35.1496C40.6904 35.434 40.1669 35.7938 39.699 36.219ZM42.7918 36.1072C42.7713 36.2223 42.728 36.3321 42.6645 36.4303C42.601 36.5285 42.5185 36.613 42.4219 36.6789C42.2612 36.7838 42.1008 36.8891 41.9342 36.9834C41.6028 37.1613 41.2741 37.3436 40.9218 37.4077C40.5754 37.4767 40.2177 37.4636 39.8773 37.3695C40.3782 36.645 41.103 36.1047 41.9405 35.8316C42.1421 35.7671 42.3561 35.7514 42.565 35.7858C42.6011 35.7917 42.6357 35.8048 42.6667 35.8242C42.6978 35.8436 42.7246 35.869 42.7457 35.899C42.7668 35.9289 42.7818 35.9627 42.7897 35.9984C42.7976 36.0342 42.7983 36.0711 42.7918 36.1072ZM63.0577 41.2549C63.0516 41.0535 63.0195 40.8538 62.9624 40.6606C62.846 40.2732 62.6299 39.9232 62.3358 39.6456C62.0523 39.4032 61.705 39.3354 61.361 39.438C61.2508 39.4726 61.1465 39.526 60.8779 39.7269C60.6093 39.9278 60.177 40.2764 59.7586 40.6413C59.34 41.0058 58.9355 41.3862 58.5461 41.7818C58.6337 41.5258 58.7333 41.2738 58.8469 41.0281C58.9598 40.7827 59.087 40.5437 59.1829 40.3667C59.2782 40.1898 59.3423 40.0749 59.4001 39.957C59.4578 39.8391 59.5083 39.7176 59.5408 39.6316C59.6033 39.4659 59.6049 39.3959 59.6026 39.2827C59.5999 39.2295 59.5916 39.1771 59.5807 39.1366C59.5697 39.0961 59.5568 39.0675 59.5378 39.0429C59.4127 38.8882 59.2344 38.948 59.0717 39.0529C59.0242 39.088 58.9802 39.1276 58.9402 39.1711C58.7379 39.3792 58.5421 39.5936 58.3532 39.8139C58.0444 40.1818 57.7825 40.5867 57.5736 41.0192C57.4703 41.2353 57.381 41.4581 57.3246 41.6121C57.2681 41.7659 57.2449 41.8505 57.2266 41.9362C57.1882 42.1163 57.1745 42.3009 57.1858 42.4847C57.1974 42.7138 57.2396 43.0183 57.3116 43.2875C57.3471 43.423 57.39 43.5568 57.4401 43.6876C57.2512 44.0908 57.0837 44.5037 56.9381 44.9244C56.7924 45.3449 56.6699 45.7731 56.5712 46.2071C56.487 46.5838 56.4171 46.9636 56.3617 47.3456C56.3242 47.6112 56.3222 47.7025 56.3285 47.7935C56.3531 48.1906 56.543 48.5963 56.9291 49.0047C57.1924 49.2501 57.5171 49.2418 57.8455 48.9672C58.0198 48.2945 58.1965 47.6245 58.3565 46.9531L58.5179 46.4162C58.5723 46.2376 58.654 46.0679 58.7592 45.8063C58.8648 45.5447 59.0069 45.1954 59.1497 44.8457C59.4675 44.7862 59.7829 44.7147 60.0953 44.6316C60.3243 44.5714 60.5456 44.485 60.7547 44.3739C60.8553 44.3205 60.9533 44.2611 61.0828 44.1714C61.2123 44.0818 61.3746 43.9612 61.5327 43.8357C61.6837 43.7157 61.8306 43.5905 61.9729 43.4602C62.2003 43.2546 62.4026 43.0231 62.5759 42.7703C62.9365 42.2516 63.0822 41.7689 63.0577 41.2549ZM61.7076 42.0019C61.62 42.1414 61.5117 42.2672 61.3866 42.3745C61.1656 42.5548 60.9351 42.7231 60.6959 42.8785C60.6143 42.9316 60.5207 42.9635 60.4236 42.971C60.3264 42.9785 60.229 42.9616 60.1401 42.9217C60.4739 42.1675 60.9502 41.485 61.543 40.9116C61.6396 40.8216 61.7212 40.8286 61.7979 40.8521C61.8756 40.8714 61.9586 40.9889 61.955 41.062C61.9698 41.3931 61.8835 41.721 61.7076 42.0019ZM15.1334 50.8597C15.1088 50.6936 15.0546 50.5332 14.9733 50.3863C14.9231 50.2964 14.8615 50.2133 14.79 50.1392C14.5739 49.9148 14.3206 49.8198 14.0689 49.7727C13.9342 49.746 13.7974 49.732 13.6602 49.7308H11.8968V50.2664H12.3895V53.4339H11.8968V53.9698H13.5094V53.4339H13.0167V52.4123H13.7657C14.0954 52.405 14.4321 52.3715 14.7897 51.9953C14.9267 51.8427 15.0285 51.662 15.0879 51.4657C15.1473 51.2695 15.1628 51.0626 15.1334 50.8597ZM14.2419 51.6709C14.0533 51.8239 13.8713 51.8349 13.695 51.8389H13.0187V50.3192H13.6708C13.8893 50.3202 14.1144 50.3617 14.3003 50.5513C14.4083 50.662 14.4789 50.8036 14.5025 50.9564C14.54 51.2206 14.4666 51.471 14.2419 51.6709Z" fill="black"/>
</g>
<defs>
<clipPath id="clip0_9_894">
<rect width="64" height="64" fill="white"/>
</clipPath>
</defs>
</svg>
