<svg width="64" height="64" viewBox="0 0 64 64" fill="none" xmlns="http://www.w3.org/2000/svg">
<g clip-path="url(#clip0_9_878)">
<path fill-rule="evenodd" clip-rule="evenodd" d="M0 0H64V64H0V0Z" fill="white"/>
<path fill-rule="evenodd" clip-rule="evenodd" d="M50.1937 21.6282C50.8007 18.2286 48.5343 15.5571 45.9026 13.6144C42.2198 10.9027 38.0515 9.28379 33.7611 8.02906V52.8745C35.6633 51.2153 37.5658 49.3533 39.3866 47.4508C43.2723 43.1607 46.8748 38.7896 48.3719 33.5277C48.9788 31.1401 48.6554 28.4281 46.6314 26.8091C48.3722 25.4329 49.9503 23.7329 50.1937 21.6282ZM42.7866 37.1298C41.4508 39.5582 39.6297 41.7845 37.4838 43.8484L37.4436 31.0179C38.9009 29.9657 40.398 29.0347 42.2198 28.8727C42.9486 28.8727 43.596 29.1154 44.0815 29.6821C45.7011 32.2321 43.7982 34.9036 42.7866 37.1298ZM46.47 20.6162C46.1055 22.6399 43.8792 23.8136 42.3008 24.6636C40.7223 25.473 39.1031 26.1205 37.4436 26.7274V13.6141C39.9942 14.383 42.3008 15.6783 44.4862 17.2166C45.4985 18.0665 46.8748 19.1187 46.47 20.6162ZM30.4422 52.5504V7.8667L26.84 9.7287V33.6897C26.6783 34.3773 27.1637 35.4298 26.3948 35.7536C26.1922 35.7941 26.0305 35.7134 25.9495 35.5517C24.4116 29.7635 23.7638 23.6522 23.4806 17.3786L23.359 11.9144L19.9189 14.4644V15.9213C20.1211 21.7095 20.5262 27.3756 21.6189 32.7992L20.243 34.3375C19.7167 33.609 19.393 32.8397 19.0284 32.0707C17.2883 27.4569 16.6405 22.3975 16.3978 17.1764L13.4026 19.4026C13.6861 27.3357 15.1836 34.8232 19.9999 40.7728C20.9309 39.7206 21.8619 38.6276 22.7929 37.6159C23.2787 39.7611 23.9667 41.8253 24.7761 43.8487C26.1112 46.9651 27.609 50.122 30.4422 52.5504Z" fill="black"/>
<path fill-rule="evenodd" clip-rule="evenodd" d="M58.0045 13.7356L52.6214 12.4002L51.6499 8.75758L46.1456 7.46234L45.0127 3.49596L32.0205 0.54126L19.2711 3.49563L18.1379 7.46201L12.6332 8.75724C12.269 10.0116 11.9452 11.2262 11.6212 12.4404L6.23805 13.7353C5.83331 25.1895 8.99054 35.2675 14.6974 44.2528C18.8663 50.6881 25.14 57.488 32.0205 60.8471C36.6745 58.6209 40.8036 54.8972 44.5269 50.7283C53.5527 40.2868 58.4903 28.0636 58.0045 13.7356ZM42.1387 48.3819C39.1843 51.7008 35.8651 54.9789 32.1417 56.8814C28.5801 55.1004 25.4637 52.0245 22.6305 48.9078C15.2642 40.2868 10.3668 30.654 9.55731 19.3618C9.4763 18.4308 9.43612 17.5407 9.4763 16.5691L14.05 15.517L15.1021 11.7528L20.7283 10.4174L20.7688 10.2959L21.7805 6.41015L31.98 4.02222L42.5033 6.41015L43.5149 10.3765L49.2221 11.7528L50.1936 15.517L54.8075 16.5691C54.6856 28.873 49.7882 39.1941 42.1387 48.3819ZM43.839 60.4026C44.4459 60.362 44.8507 60.0383 44.8507 59.35C44.8507 58.5814 44.3649 58.2168 43.4336 58.2168H41.977V62.1022H42.6241V60.4431H43.2311L44.2434 62.1022H44.9314L43.839 60.4026ZM42.6244 59.9168V58.7431H43.3934C43.758 58.7431 44.2029 58.8238 44.2029 59.3095C44.2029 59.8358 43.7982 59.9168 43.3124 59.9168H42.6244Z" fill="black"/>
<path fill-rule="evenodd" clip-rule="evenodd" d="M43.3527 56.9624C41.5319 56.9624 40.0344 58.4598 40.0344 60.281C40.0344 62.1022 41.5319 63.5999 43.3527 63.5999C45.1742 63.5999 46.6723 62.1022 46.6723 60.281C46.6723 58.4598 45.1745 56.9624 43.3527 56.9624ZM43.3527 63.2762C42.9591 63.2771 42.5693 63.2002 42.2055 63.05C41.8417 62.8998 41.5112 62.6792 41.2329 62.4009C40.9546 62.1226 40.7341 61.792 40.5839 61.4282C40.4337 61.0644 40.3569 60.6746 40.3578 60.281C40.3569 59.8874 40.4337 59.4976 40.5839 59.1338C40.7341 58.77 40.9546 58.4394 41.2329 58.1611C41.5112 57.8828 41.8417 57.6622 42.2055 57.512C42.5693 57.3618 42.9591 57.2849 43.3527 57.2858C45.0128 57.2858 46.3479 58.6212 46.3479 60.281C46.3489 60.6746 46.2721 61.0646 46.122 61.4284C45.9718 61.7923 45.7512 62.1229 45.4729 62.4012C45.1945 62.6795 44.8639 62.9001 44.5001 63.0503C44.1362 63.2004 43.7463 63.2772 43.3527 63.2762Z" fill="black"/>
</g>
<defs>
<clipPath id="clip0_9_878">
<rect width="64" height="64" fill="white"/>
</clipPath>
</defs>
</svg>
